<svg xmlns="http://www.w3.org/2000/svg" viewBox="0 0 841.9 595.3" enable-background="new 0 0 841.9 595.3"><style type="text/css">.st0{fill:#003A5D;} .st1{fill:#94969A;} .st2{display:none;fill:#003A5D;}</style><path d="M85 114.6h37c8.6 0 23.5 3.3 23.5 19.1 0 11.2-8.7 19.6-21.9 21.1v.2c9.6 1.4 16.1 6.9 16.1 16.1 0 17.7-15.2 26-34.3 26.3l-38 .5L85 114.6zm7.9 67.6h6c11.2 0 18.8-3.1 18.8-11.2 0-7.3-5.3-8.4-15.3-8.4H97l-4.1 19.6zm7.3-34.6h8.4c9.3 0 14.8-3.7 14.8-9.4 0-6.7-5.5-7.8-13.9-7.8h-5.7l-3.6 17.2zM362.8 114.6l-30.1 34.1h-.2l7.2-34.1h-22.5L299.6 198h22.5l8-37.9h.2l20.6 37.9h25.7L352 155.1l39.6-40.5zM243.6 114.6l-18 83.4H286l3.2-15.8h-38.1l4-18.8h34.7l3.4-15.8h-34.7l3.8-17.2H299l3.2-15.8zM163.5 114.6h26.6c15.9.1 35 .6 35 21.3 0 14.7-11.5 19.8-24.3 21.4v.2c6.6.6 8.7 9.4 9.9 14.8l6 25.7h-22.2l-4.3-21.3c-2.2-10.9-2.9-11.7-12.9-11.7H175l-6.7 33H146l17.5-83.4zm14.7 34.7h7.5c9.7 0 17.2-2.4 17.2-10.3 0-6-3.6-8.5-10.3-8.6H182l-3.8 18.9zM417.8 199.4c-27.1 0-37-16.8-37-33.9 0-31.7 16.6-52.3 48.7-52.3 27.1 0 37 16.8 37 34 .1 31.6-16.5 52.2-48.7 52.2m10.3-69.7c-17.2 0-24.4 19.9-24.4 34 0 10.5 3.9 19.2 15.5 19.2 17.2 0 24.4-20 24.4-33.9 0-10.5-3.9-19.3-15.5-19.3" class="st0"/><path d="M529 211H409.3c-62.8 0-98.1 18.4-119.7 35.1h232.2L529 211z" class="st0"/><path d="M169.8 272H51.9l-1.9 9.2h119.8c62.8 0 98.1-18.4 119.7-35.1-21.7 11.9-56.9 25.4-119.7 25.9" class="st1"/><path d="M55.4 255.4h114.9c62.8.5 97.5-4.4 119.2-9.3H57.3l-1.9 9.3zM54.6 259.1l-1.9 9.2h117.6c62.8.7 97.5-13 119.2-22.2-21.7 6.3-56.9 13-119.7 13H54.6z" class="st1"/><path d="M840.6 358.6c0-.3.2-.4.4-.4h3.3c.3 0 .4.2.4.4v3.7c0 .3-.2.4-.4.4H841c-.3 0-.4-.2-.4-.4v-3.7z" class="st2"/><path d="M303.5 310.6l-7.4-29.4h4l3.5 14.9c.9 3.7 1.7 7.3 2.2 10.1h.1c.5-2.9 1.4-6.4 2.4-10.2l3.9-14.8h4l3.6 14.9c.8 3.5 1.6 7 2 10.1h.1c.6-3.2 1.4-6.5 2.4-10.1l3.9-14.8h3.9l-8.3 29.4h-4l-3.7-15.3c-.9-3.7-1.5-6.6-1.9-9.6h-.1c-.5 2.9-1.2 5.8-2.3 9.6l-4.2 15.3h-4.1zM339 283.6c0 1.3-.9 2.4-2.4 2.4-1.4 0-2.3-1-2.3-2.4s1-2.4 2.4-2.4c1.3 0 2.3 1.1 2.3 2.4zm-4.3 27v-21.1h3.8v21.1h-3.8zM344.9 296.1c0-2.5 0-4.6-.2-6.6h3.4l.1 4.1h.2c1-2.8 3.3-4.6 5.8-4.6.4 0 .7 0 1.1.1v3.6c-.4-.1-.8-.1-1.3-.1-2.7 0-4.6 2-5.1 4.9-.1.5-.2 1.1-.2 1.8v11.2h-3.8v-14.4zM368.2 310.6c.1-1.4.2-3.6.2-5.4v-25.5h3.8v13.2h.1c1.4-2.4 3.8-3.9 7.2-3.9 5.2 0 8.9 4.4 8.9 10.8 0 7.5-4.7 11.3-9.5 11.3-3 0-5.5-1.2-7.1-4h-.1l-.2 3.5h-3.3zm3.9-8.4c0 .5.1 1 .2 1.4.7 2.7 3 4.5 5.7 4.5 4 0 6.4-3.3 6.4-8.1 0-4.2-2.2-7.8-6.3-7.8-2.6 0-5.1 1.8-5.8 4.7-.1.4-.2 1-.2 1.6v3.7zM404.8 310.6l-.3-2.7h-.1c-1.2 1.7-3.4 3.1-6.4 3.1-4.3 0-6.4-3-6.4-6.1 0-5.1 4.5-7.9 12.7-7.8v-.4c0-1.7-.5-4.9-4.8-4.9-2 0-4 .6-5.5 1.6l-.9-2.5c1.7-1.1 4.3-1.9 6.9-1.9 6.4 0 8 4.4 8 8.6v7.9c0 1.8.1 3.6.3 5.1h-3.5zm-.6-10.7c-4.2-.1-8.9.7-8.9 4.7 0 2.5 1.7 3.7 3.6 3.7 2.7 0 4.5-1.7 5.1-3.5.1-.4.2-.8.2-1.2v-3.7zM431.8 304.9c0 2.2 0 4.1.2 5.7h-3.4l-.2-3.4h-.1c-1 1.7-3.2 3.9-7 3.9-3.3 0-7.3-1.8-7.3-9.2v-12.3h3.8v11.7c0 4 1.2 6.7 4.7 6.7 2.6 0 4.4-1.8 5.1-3.5.2-.6.3-1.3.3-2v-12.9h3.8v15.3zM440.2 300.8c.1 5.2 3.4 7.3 7.2 7.3 2.7 0 4.4-.5 5.8-1.1l.7 2.7c-1.3.6-3.7 1.3-7 1.3-6.5 0-10.4-4.3-10.4-10.6 0-6.4 3.7-11.4 9.9-11.4 6.9 0 8.7 6.1 8.7 9.9 0 .8-.1 1.4-.1 1.8h-14.8zm11.3-2.8c0-2.4-1-6.2-5.3-6.2-3.9 0-5.6 3.6-5.9 6.2h11.2zM459.9 295.2c0-2.2 0-4-.2-5.7h3.4l.2 3.5h.1c1-2 3.5-4 7-4 2.9 0 7.4 1.7 7.4 9v12.6H474v-12.1c0-3.4-1.3-6.2-4.9-6.2-2.5 0-4.5 1.8-5.1 3.9-.2.5-.3 1.1-.3 1.8v12.7h-3.8v-15.5zM511.5 279.7v25.5c0 1.9 0 4 .2 5.4h-3.4l-.2-3.7h-.1c-1.2 2.4-3.7 4.1-7.2 4.1-5.1 0-9-4.3-9-10.7 0-7 4.3-11.3 9.4-11.3 3.2 0 5.4 1.5 6.4 3.2h.1v-12.6h3.8zm-3.8 18.4c0-.5 0-1.1-.2-1.6-.6-2.4-2.7-4.4-5.5-4.4-4 0-6.3 3.5-6.3 8.1 0 4.3 2.1 7.8 6.2 7.8 2.6 0 4.9-1.7 5.6-4.6.1-.5.2-1 .2-1.7v-3.6zM522.1 283.6c0 1.3-.9 2.4-2.4 2.4-1.3 0-2.3-1-2.3-2.4s1-2.4 2.4-2.4 2.3 1.1 2.3 2.4zm-4.2 27v-21.1h3.8v21.1h-3.8zM530.2 300.8c.1 5.2 3.4 7.3 7.2 7.3 2.7 0 4.4-.5 5.8-1.1l.7 2.7c-1.3.6-3.7 1.3-7 1.3-6.5 0-10.4-4.3-10.4-10.6 0-6.4 3.7-11.4 9.9-11.4 6.9 0 8.7 6.1 8.7 9.9 0 .8-.1 1.4-.1 1.8h-14.8zm11.2-2.8c0-2.4-1-6.2-5.3-6.2-3.9 0-5.6 3.6-5.9 6.2h11.2zM559.2 310.6v-29.4h4.1l9.4 14.9c2.2 3.4 3.9 6.5 5.3 9.5h.1c-.3-3.9-.4-7.5-.4-12.1v-12.3h3.6v29.4h-3.8l-9.3-14.9c-2-3.3-4-6.6-5.5-9.8h-.1c.2 3.7.3 7.2.3 12.1v12.5h-3.7zM589.9 300.8c.1 5.2 3.4 7.3 7.2 7.3 2.7 0 4.4-.5 5.8-1.1l.7 2.7c-1.3.6-3.7 1.3-7 1.3-6.5 0-10.4-4.3-10.4-10.6 0-6.4 3.7-11.4 9.9-11.4 6.9 0 8.7 6.1 8.7 9.9 0 .8-.1 1.4-.1 1.8h-14.8zm11.2-2.8c0-2.4-1-6.2-5.3-6.2-3.9 0-5.6 3.6-5.9 6.2h11.2zM614.2 283.5v6.1h5.5v2.9h-5.5v11.4c0 2.6.7 4.1 2.9 4.1 1 0 1.7-.1 2.2-.3l.2 2.9c-.7.3-1.9.5-3.4.5-1.8 0-3.2-.6-4.1-1.6-1.1-1.1-1.5-3-1.5-5.5v-11.5h-3.3v-2.9h3.3v-5.1l3.7-1zM621.6 308.4l9.5-12.4c.9-1.1 1.8-2.1 2.7-3.3v-.1h-11.4v-3.1h16.1v2.4l-9.4 12.2c-.9 1.2-1.7 2.2-2.7 3.3v.1h12.3v3h-17.1v-2.1zM644.5 300.8c.1 5.2 3.4 7.3 7.2 7.3 2.7 0 4.4-.5 5.8-1.1l.7 2.7c-1.3.6-3.7 1.3-7 1.3-6.5 0-10.4-4.3-10.4-10.6 0-6.4 3.7-11.4 9.9-11.4 6.9 0 8.7 6.1 8.7 9.9 0 .8-.1 1.4-.1 1.8h-14.8zm11.2-2.8c0-2.4-1-6.2-5.3-6.2-3.9 0-5.6 3.6-5.9 6.2h11.2zM663.4 308.4c0-1.6 1.1-2.7 2.6-2.7 1.6 0 2.6 1.1 2.6 2.7 0 1.5-1 2.7-2.6 2.7s-2.6-1.2-2.6-2.7zm1.1-6.2l-.6-20.9h4.2l-.6 20.9h-3z" class="st0"/></svg>