<?xml version="1.0" encoding="UTF-8" standalone="no"?>
<svg xmlns:svg="http://www.w3.org/2000/svg" xmlns="http://www.w3.org/2000/svg" version="1.1" width="544.28857" height="265.96558" id="svg3433">
  <defs id="defs3435"/>
  <g transform="translate(-139.28515,-425.09369)" id="layer1">
    <path d="m 276.36547,603.45433 6.49577,0 0,86.60493 -15.15547,0 0,-86.60493 8.6597,0 z" id="path110" style="fill:#f2cf04;fill-opacity:1;fill-rule:nonzero;stroke:none"/>
    <path d="m 276.36547,516.40875 6.49577,0 0,87.04558 -15.15547,0 0,-87.04558 8.6597,0 z" id="path114" style="fill:#ed1c24;fill-opacity:1;fill-rule:nonzero;stroke:none"/>
    <path d="m 201.34351,462.01513 c 0.11394,-0.97181 0.18508,-1.97115 0.18508,-2.98624 0,-0.56263 0.006,-1.21574 -0.063,-1.95542 8.63216,-0.11425 16.19022,-6.33445 16.19022,-13.48333 0,-3.63936 -2.3646,-6.3856 -3.71018,-8.01839 l 0.91673,-0.21655 c 1.25902,1.10558 4.84723,5.00461 4.84723,9.94233 0,8.57708 -8.57708,16.53646 -18.36597,16.71744 m -8.69905,-29.87028 c -0.16116,-0.96393 -0.52328,-1.82558 -1.0741,-2.57312 0.0283,-0.86951 0.38951,-1.70755 1.79017,-1.02689 -0.76328,0.78689 -0.1769,2.16394 -0.1769,2.16394 0,0 1.56591,-0.72393 1.24329,-1.75082 2.31345,0.55475 0.64525,3.66296 -1.7823,3.18689 m -2.00657,4.39478 c -0.29902,-1.2787 -0.96787,-2.5928 -1.80591,-3.58822 -0.75148,-0.89311 -2.0105,-1.96722 -3.71018,-1.96722 -0.77508,0 -2.07345,0.36591 -2.89574,0.71214 -0.31476,-0.55869 -0.91673,-1.91608 -0.91673,-2.52591 0,-0.62951 1.0623,-1.26296 3.08854,-1.26296 4.46559,0 7.14101,2.01837 7.14101,5.40199 0,1.1882 -0.4682,2.27411 -0.90099,3.23018 m 11.4807,57.60022 c 0.51541,0 0.77115,0.0828 1.07017,0.18885 1.28263,3.50165 6.24002,10.10758 6.45248,10.39086 l 0.0472,0.0592 0.0708,-0.0157 c 1.20394,-0.2005 4.32395,-0.66099 6.92068,-0.66099 l 0.0551,0 0.80656,0.19263 c 0.16903,0.16525 0.2559,0.4682 0.2559,0.88918 0,0.64132 -0.2795,1.74296 -0.60984,2.2151 -0.90492,-0.98755 -2.38821,-1.43608 -4.741,-1.43608 -0.71214,0 -1.55804,0.21656 -2.0105,0.33443 l -0.19295,0.0356 -0.20837,0.063 1.36919,1.35738 c 2.10493,2.10493 3.92657,3.92264 3.92657,5.12658 0,0.73181 -0.71607,1.67607 -1.36918,2.09706 -0.13755,-2.21509 -2.37641,-5.17379 -4.54822,-6.83019 l -0.18507,-0.13787 -0.0394,0.78296 c -0.0315,0.52328 -0.0749,1.3141 -0.0749,2.16394 0,4.20985 -0.43279,4.8551 -1.89247,4.8551 l -0.77508,-0.14573 c 0.81443,-1.01509 1.14492,-2.3646 1.14492,-4.70953 l -0.0157,-1.09377 0,-0.86951 c 0,-0.96788 0.0907,-1.68001 0.16903,-2.25444 l 0.0472,-0.32656 -0.23197,-0.0315 c -0.6846,-0.0944 -1.95936,-0.27164 -2.92723,-0.27164 -2.08132,0 -3.48985,0.19673 -4.52067,1.15673 -0.66492,-0.54295 -1.36525,-1.49115 -1.36525,-2.08132 0,-0.87738 0.55082,-0.9482 1.26689,-0.9482 0.36984,0 0.7082,0.0513 1.16853,0.11394 0.89705,0.1259 2.24263,0.33049 5.01641,0.33049 l 0.17689,0 -0.0513,-0.17311 c -0.7082,-2.0105 -2.63608,-4.93773 -5.73248,-8.70692 0.26754,-0.99935 0.55082,-1.66033 1.52656,-1.66033 m -26.7424,10.36725 -0.0513,0.17311 0.16933,0 c 2.77379,0 4.1233,-0.20459 5.01642,-0.33049 0.47606,-0.063 0.81443,-0.11394 1.17639,-0.11394 0.71607,0 1.25903,0.0708 1.25903,0.9482 0,0.59017 -0.69247,1.53837 -1.36132,2.08132 -1.02689,-0.96 -2.43542,-1.15673 -4.51674,-1.15673 -0.97574,0 -2.24263,0.17721 -2.92722,0.27164 l -0.10608,0.0157 -0.11803,0.0157 0.0315,0.32656 c 0.0865,0.57443 0.1772,1.28656 0.1772,2.25444 l -0.006,0.86951 -0.006,1.09377 c 0,2.34493 0.32263,3.69444 1.14493,4.70953 l -0.78296,0.14573 c -1.45181,0 -1.8846,-0.64525 -1.8846,-4.8551 0,-0.84984 -0.051,-1.64066 -0.0746,-2.16394 l -0.0393,-0.78689 -0.18476,0.14164 c -2.17574,1.6564 -4.41838,4.6151 -4.54821,6.83019 -0.66099,-0.42099 -1.36919,-1.36525 -1.36919,-2.09706 0,-1.20394 1.82165,-3.02165 3.9187,-5.12657 l 1.21575,-1.20394 0.16147,-0.1536 -0.40919,-0.0982 c -0.45246,-0.11803 -1.29049,-0.33443 -2.00263,-0.33443 -2.36853,0 -3.83608,0.44853 -4.74887,1.43608 -0.32262,-0.47214 -0.60197,-1.57378 -0.60197,-2.2151 0,-0.42098 0.0866,-0.72393 0.24803,-0.88918 l 0.80656,-0.19263 0.063,0 c 2.59673,0 5.70888,0.46033 6.92069,0.66099 l 0.0708,0.0157 0.0472,-0.0592 c 0.20459,-0.28328 5.16199,-6.88921 6.46035,-10.39086 0.28328,-0.10639 0.54689,-0.18885 1.0623,-0.18885 0.97574,0 1.24328,0.66098 1.51869,1.66033 -3.0964,3.7692 -5.01641,6.69642 -5.72461,8.70692 m -13.38497,-59.20941 c 0,-4.93772 3.58821,-8.83675 4.84723,-9.94233 l 0.90886,0.21655 c -1.33771,1.63279 -3.71018,4.37903 -3.71018,8.01839 0,7.2197 7.71938,13.49514 16.45777,13.49514 -0.0551,0.6177 -0.0828,1.27082 -0.0828,1.94361 0,1.0623 0.051,2.04984 0.16115,2.98624 -9.88331,-0.0589 -18.58236,-8.07347 -18.58236,-16.71744 m 66.2796,15.21448 c 4.42625,7.00724 7.90429,6.88921 13.1489,6.88921 -4.34362,-3.31673 -7.21183,-7.57773 -8.57708,-9.74954 l -8.10102,-12.95612 c -0.79082,-4.00526 -2.8564,-7.74692 -5.95281,-10.52463 1.04263,-0.39738 1.90427,-0.81443 2.43542,-1.20787 -5.29575,0 -10.53643,-2.68723 -13.41644,-2.68723 -1.85312,0 -3.05313,1.10951 -3.05313,2.57313 0.12181,1.62886 1.80591,3.29706 4.90232,3.29706 0.71606,0 1.60525,-0.0944 2.59673,-0.25558 1.68394,2.33706 3.03739,4.45772 3.03739,7.4715 0,5.68133 -6.78692,10.10365 -13.63284,10.10365 -0.39345,0 -0.75148,-0.0189 -1.14493,-0.0472 -0.61377,-1.40459 -2.68329,-3.76526 -2.68329,-6.44461 0,-4.51281 2.94297,-8.19938 2.94297,-12.66103 0,-2.77772 -1.34952,-4.4892 -1.8728,-5.20134 0.83804,-0.78295 1.76657,-1.74689 1.97509,-2.4 -0.4918,0.20459 -1.07017,0.23984 -1.91607,0.23984 -3.27739,0 -5.95281,-0.85771 -8.56528,-0.85771 -1.48328,0 -1.89247,0.46033 -1.89247,0.89705 l 0.0708,0.40918 c -0.55475,-0.22442 -1.07803,-0.36196 -1.69181,-0.48393 -0.76721,-0.14542 -1.59738,-0.22033 -2.48263,-0.22033 -3.16329,0 -4.29247,1.32984 -4.29247,2.47476 0,0.96001 0.75934,2.72264 1.62099,4.05641 1.22754,-0.62164 2.71083,-1.04262 3.39542,-1.04262 1.68394,0 3.17509,1.60525 3.97378,3.50165 -1.13705,0.13377 -1.36131,0.18507 -2.49837,0.18507 -3.08853,0 -5.17772,-1.10164 -5.61838,-1.10164 l -0.12212,0.0866 c 0,0.43672 0.86951,1.58164 2.59673,2.21115 2.27411,0.83017 5.6774,1.1764 6.25576,1.27083 0,0.10229 -0.59017,1.16853 -1.23148,1.38099 l -0.39738,0.0157 c -2.38427,-0.4682 -3.03739,-0.67279 -6.03937,-1.81378 l -0.15328,0.11803 c 0,1.19214 3.08067,3.82034 5.83871,4.82756 -2.30558,2.9469 -5.18559,5.95675 -6.54691,10.55217 -0.37771,0.0283 -0.75148,0.0472 -1.14492,0.0472 -6.83806,0 -13.62497,-4.42232 -13.62497,-10.10365 0,-3.01378 1.35344,-5.13444 3.04132,-7.4715 0.98361,0.16115 1.87673,0.25558 2.58493,0.25558 3.10427,0 4.78821,-1.6682 4.91018,-3.29706 0,-1.46362 -1.19214,-2.57313 -3.061,-2.57313 -2.88788,0 -8.11281,2.68723 -13.4007,2.68723 0.51541,0.39344 1.38492,0.81049 2.42755,1.20787 -3.10428,2.77771 -5.16986,6.51937 -5.95281,10.52463 l -8.10102,12.95612 c -1.36918,2.17181 -4.24133,6.43281 -8.57708,9.74954 5.23674,0 8.70692,0.11803 13.1489,-6.88921 l 4.15084,-6.6492 c 0.30689,0.86558 0.68459,1.69968 1.13705,2.52591 l -8.26232,13.21579 c -1.37312,2.18755 -4.21773,6.40527 -8.58102,9.74954 5.24854,0 8.72266,0.12213 13.1489,-6.88133 l 7.11347,-11.38628 c 0.53115,0.5705 1.08984,1.12132 1.68394,1.65247 l -10.03676,16.05645 c -1.37705,2.19542 -4.20985,6.40134 -8.57708,9.74561 5.24855,0 8.71479,0.12591 13.1489,-6.88133 l 9.78496,-15.65908 c 0.64525,0.40525 1.29837,0.80263 1.97902,1.18033 l -11.94103,19.09385 c -1.37312,2.19541 -4.20198,6.39346 -8.56527,9.74167 5.24067,0 8.71085,0.11804 13.14496,-6.88527 l 12.28726,-19.67614 c 0.73181,0.2795 1.46755,0.54295 2.22296,0.79082 l -13.89251,22.22566 c -1.36132,2.16394 -4.25313,6.43675 -8.56921,9.74168 5.2328,0 8.71479,0.11803 13.1489,-6.88527 l 14.8053,-23.68534 0.44066,0.0787 c 0.39738,1.27869 0.68066,2.47476 0.68066,3.66296 0,7.44397 -4.88658,14.01842 -10.74889,19.08991 0.3777,0.17312 1.02295,0.22411 1.63672,0.22411 1.20788,0 1.99083,-0.063 2.53772,-0.16116 -1.36132,3.08854 -4.2728,7.07806 -5.74822,9.13971 -1.92394,-0.34623 -4.71346,-0.61771 -6.53904,-0.61771 -1.91608,0 -2.12854,1.12525 -2.12854,2.1246 0,1.73116 0.81443,3.11215 1.7587,3.88723 0.3541,-0.88918 1.06623,-2.07738 4.6033,-2.07738 l 0.3541,0.0189 c -1.03083,1.14886 -4.26494,3.76133 -4.26494,5.86625 0,1.3928 1.52657,3.48985 3.541,3.48985 -0.11394,-0.44852 -0.0982,-0.86557 -0.0982,-1.16853 0,-1.71935 1.50295,-3.70624 2.78951,-5.09903 -0.0472,0.40918 -0.0315,0.37377 -0.0315,0.85377 0,4.02887 0.37377,5.88593 2.92722,5.88593 1.25902,0 2.12067,-0.6964 2.41968,-0.89706 -1.66033,-1.53427 -1.75082,-2.72641 -1.75082,-4.98871 0.006,-0.5941 0.006,-1.16853 0.022,-1.96329 0,-0.51541 0,-1.19607 -0.0944,-1.69181 0.9246,-0.13377 1.2905,-0.13377 1.9987,-0.13377 0,0 3.63542,-0.28328 4.51281,1.60525 0.98361,-0.90098 2.41181,-2.18361 2.41181,-3.58821 0,-0.92853 -0.44066,-1.98689 -2.30558,-1.98689 -0.71607,0 -2.94297,0.43672 -4.81183,0.43672 0.49968,-1.11738 2.73837,-4.37903 4.67412,-6.7515 0.29115,0.9246 0.74361,1.91607 1.7587,2.72657 0.13786,-1.52263 1.03869,-6.34232 3.41902,-9.15545 0.27542,1.90034 0.65312,3.85576 0.65312,7.97118 0,10.02102 -2.41181,17.41777 -7.53052,18.83024 0.66886,1.15672 2.07345,2.19935 3.541,2.19935 1.86099,0 2.88394,-2.11673 3.92264,-4.10756 0.54295,1.46755 2.04197,5.07937 3.53313,5.07937 1.49902,0 2.99017,-3.61182 3.53312,-5.07937 1.0387,1.99083 2.06165,4.10756 3.92658,4.10756 1.46361,0 2.87607,-1.04263 3.53706,-2.19935 -5.11084,-1.41247 -7.52265,-8.80922 -7.52265,-18.83024 0,-4.11542 0.3777,-6.07084 0.64525,-7.97118 2.3882,2.81313 3.28132,7.63282 3.41902,9.15545 1.01509,-0.8105 1.47542,-1.80197 1.76657,-2.72657 1.92788,2.37247 4.16657,5.63412 4.67412,6.7515 -1.87673,0 -4.10363,-0.43672 -4.81183,-0.43672 -1.87279,0 -2.32132,1.05836 -2.32132,1.98689 0,1.4046 1.44394,2.68723 2.42755,3.58821 0.87738,-1.88853 4.51281,-1.60525 4.51281,-1.60525 0.7082,0 1.0741,0 1.99869,0.13377 -0.0944,0.49574 -0.0944,1.1764 -0.0944,1.69181 0.006,0.79476 0.006,1.36919 0.006,1.96329 0,2.2623 -0.0749,3.45444 -1.74295,4.98887 0.29901,0.20081 1.16852,0.89705 2.41968,0.89705 2.55738,0 2.91935,-1.85705 2.91935,-5.88592 0,-0.48 0.022,-0.44459 -0.0157,-0.85378 1.28657,1.3928 2.79739,3.37969 2.79739,5.09904 0,0.3028 0.009,0.72 -0.10607,1.16853 2.01443,0 3.541,-2.09706 3.541,-3.48985 0,-2.10493 -3.23411,-4.7174 -4.27281,-5.86625 l 0.36197,-0.0189 c 3.53706,0 4.24133,1.1882 4.6033,2.07739 0.94426,-0.77509 1.75083,-2.15608 1.75083,-3.88723 0,-0.99935 -0.2046,-2.1246 -2.12067,-2.1246 -1.83345,0 -4.62297,0.27132 -6.54691,0.61771 -1.46755,-2.06165 -4.3869,-6.05117 -5.74822,-9.13971 0.54689,0.0982 1.33771,0.16147 2.54559,0.16147 0.6059,0 1.25115,-0.0513 1.63672,-0.22442 -5.86231,-5.0715 -10.75676,-11.64595 -10.75676,-19.08991 0,-1.1882 0.29115,-2.38427 0.68853,-3.66296 l 0.45639,-0.0787 14.78957,23.68533 c 4.42624,7.00331 7.90823,6.88528 13.14103,6.88528 -4.31215,-3.30493 -7.21576,-7.57774 -8.56921,-9.74168 l -13.89251,-22.22582 c 0.76328,-0.24802 1.49902,-0.51148 2.22296,-0.79082 l 12.29512,19.67614 c 4.43412,7.00331 7.89643,6.88527 13.1371,6.88527 -4.36329,-3.34821 -7.18429,-7.54626 -8.56527,-9.74167 l -11.93316,-19.09385 c 0.67278,-0.3777 1.34164,-0.77508 1.97902,-1.18033 l 9.77709,15.65908 c 4.44198,7.00724 7.90822,6.88133 13.1489,6.88133 -4.35936,-3.34427 -7.19609,-7.55019 -8.56921,-9.74561 l -10.03676,-16.05645 c 0.59016,-0.53115 1.16066,-1.08197 1.68394,-1.65247 l 7.1056,11.38628 c 4.43411,7.0033 7.90823,6.88133 13.1489,6.88133 -4.35543,-3.34427 -7.20003,-7.56199 -8.57315,-9.74954 l -8.24659,-13.21579 c 0.42886,-0.82623 0.81443,-1.66033 1.12132,-2.52591 l 4.15084,6.6492" id="path118" style="fill:#231f20;fill-opacity:1;fill-rule:nonzero;stroke:none"/>
    <path d="m 267.70574,430.24055 15.15546,0 0,86.60099 -15.15546,0 0,-86.60099 z" id="path120" style="fill:#231f20;fill-opacity:1;fill-rule:nonzero;stroke:none"/>
    <path d="m 314.90015,429.52842 0,35.31161 8.65577,0 c 3.61182,0 6.24789,-0.69246 7.86888,-2.06558 1.79804,-1.49509 2.75411,-3.98559 2.75411,-7.5738 0,-2.51411 -0.40525,-4.40264 -1.18033,-5.70494 -0.87738,-1.49903 -2.43936,-2.5928 -4.72133,-3.14756 1.99083,-0.62557 3.35214,-1.61705 4.13116,-2.95083 0.75935,-1.17246 1.08197,-2.79739 1.08197,-5.01641 0,-3.16723 -0.67279,-5.41773 -2.16394,-6.78691 -1.47542,-1.37312 -3.82034,-2.06558 -6.98363,-2.06558 l -9.44266,0 z m 85.47574,0 0,13.08201 c -1.23935,-1.92394 -3.03346,-2.95083 -5.50822,-2.95083 -2.96657,0 -5.01641,1.36132 -6.19675,4.03281 -0.88525,1.92394 -1.37705,4.80395 -1.37705,8.55741 0,3.97772 0.32656,6.85773 1.08197,8.75413 1.1764,2.83673 3.43083,4.22952 6.59019,4.22952 2.45116,0 4.29641,-0.99541 5.70494,-3.14755 l 0.0982,2.75411 3.73772,0 c -0.14132,-2.21509 -0.19672,-3.74166 -0.19672,-4.62297 l 0,-30.68864 -3.93444,0 z m -81.34458,3.34427 4.13116,0 c 2.12067,0 3.67084,0.29902 4.62297,1.08197 1.07411,0.88525 1.57378,2.42755 1.57378,4.62297 0,4.19805 -2.01837,6.29511 -6.00002,6.29511 l -4.32789,0 0,-12.00005 z m 195.83682,1.08197 -3.93444,1.67214 0,4.62297 -3.63936,0 0,2.75411 3.63936,0 0,16.03285 c 0,2.24656 0.39738,3.77706 1.08197,4.62297 0.81443,0.95213 2.32132,1.37705 4.52461,1.37705 0.68459,0 1.63673,-0.0551 2.85247,-0.19672 l 0,-2.95083 c -0.98361,0.13377 -1.58558,0.19672 -1.7705,0.19672 -1.0859,0 -1.78623,-0.31476 -2.16394,-0.78689 -0.39738,-0.47607 -0.59017,-1.38099 -0.59017,-2.75411 l 0,-15.54104 4.32789,0 0,-2.75411 -4.32789,0 0,-6.29511 z m -140.36119,5.70494 c -2.90362,0 -5.01642,1.32984 -6.39347,3.93444 l 0,-3.34427 -3.83608,0 c 0.12181,1.40459 0.19672,3.12395 0.19672,5.3115 l 0,19.27876 3.83608,0 0,-14.75416 c 0,-1.92394 0.43279,-3.61181 1.18033,-5.01641 0.90492,-1.62886 2.16788,-2.45903 3.83608,-2.45903 1.69968,0 2.80132,0.73574 3.34428,2.16395 0.29492,0.78295 0.4918,2.21115 0.4918,4.32788 l 0,15.73777 3.83608,0 0,-17.50827 c 0,-5.12264 -2.15214,-7.67216 -6.49182,-7.67216 z m 44.85263,0 c -3.74953,0 -6.20855,1.45968 -7.47544,4.42625 -0.81443,1.88853 -1.27869,5.06756 -1.27869,9.44266 0,3.84001 0.52721,6.6256 1.47541,8.36069 1.27476,2.31345 3.55674,3.44263 6.98363,3.44263 5.29183,0 8.042,-2.68329 8.26233,-8.16396 l -3.73772,0 c -0.13755,3.61968 -1.68394,5.40985 -4.52461,5.40985 -1.90033,0 -3.10034,-0.75541 -3.73771,-2.36066 -0.46033,-1.10164 -0.68853,-2.99018 -0.68853,-5.50822 l 0,-1.67214 12.88529,0 0,-1.08197 c 0,-3.94231 -0.36197,-6.72396 -1.08197,-8.36069 -1.16853,-2.6046 -3.55673,-3.93444 -7.08199,-3.93444 z m 20.65582,0 c -2.19936,0 -3.90691,0.52328 -5.21314,1.57378 -1.40066,1.10558 -2.06558,2.70296 -2.06558,4.81969 0,1.89247 0.63344,3.48198 1.86886,4.62297 0.62557,0.58623 2.0105,1.41246 4.32788,2.65575 1.69181,0.91279 2.85247,1.64066 3.34428,2.16394 0.77902,0.78689 1.18033,1.87673 1.18033,3.24591 0,2.54559 -1.25509,3.83608 -3.73772,3.83608 -2.18361,0 -3.41509,-1.25902 -3.63936,-3.83608 -0.0393,-0.42098 0,-0.88525 0,-1.37705 l -3.93444,0 c -0.10229,5.31936 2.42362,7.96724 7.47544,7.96724 5.15412,0 7.77052,-2.3882 7.77052,-7.18035 0,-1.86099 -0.60197,-3.48198 -1.7705,-4.72133 -0.75147,-0.75148 -2.1482,-1.57771 -4.13116,-2.65575 -1.82165,-0.97574 -3.05706,-1.70755 -3.541,-2.16394 -0.95213,-0.79083 -1.37705,-1.73903 -1.37705,-2.85247 0,-1.00329 0.29115,-1.83345 0.88525,-2.45903 0.5823,-0.61771 1.34558,-0.88525 2.36066,-0.88525 2.31345,0 3.541,1.45575 3.541,4.52461 l 3.83608,0 c -0.0592,-2.48657 -0.59803,-4.31608 -1.67214,-5.50822 -1.07803,-1.19607 -2.96657,-1.7705 -5.50821,-1.7705 z m 20.65581,0 c -2.3764,0 -4.20592,0.49574 -5.60658,1.47542 -1.64066,1.10951 -2.45902,2.77378 -2.45902,5.01641 l 0,0.29493 3.83608,0 0,-0.29493 c 0,-1.16459 0.40918,-2.09706 1.18033,-2.75411 0.78295,-0.65311 1.7587,-0.88525 2.95083,-0.88525 1.68788,0 2.82887,0.55869 3.34428,1.86886 0.33442,0.78689 0.4918,2.21116 0.4918,4.22953 l 0,1.08197 c -4.05641,0.0353 -6.98757,0.46426 -8.75413,1.27869 -2.67542,1.20394 -4.0328,3.58821 -4.0328,7.082 0,2.15214 0.55869,3.8164 1.57377,5.11477 1.14493,1.37312 2.73838,2.06558 4.81969,2.06558 2.74624,0 4.92199,-1.12918 6.59019,-3.54099 l 0.0982,3.14755 3.73772,0 c -0.16147,-2.28198 -0.29493,-4.89445 -0.29493,-7.86888 l 0,-9.04922 c 0,-2.86821 -0.53115,-4.96527 -1.57378,-6.19675 -1.10557,-1.37705 -3.05706,-2.06558 -5.90166,-2.06558 z m 24.19682,0 c -2.581,0 -4.50494,1.22755 -5.8033,3.73772 l 0,-3.14755 -3.83608,0 c 0.12181,1.36918 0.19672,2.75411 0.19672,4.22952 l 0,20.36074 3.83608,0 0,-15.04924 c 0,-2.0223 0.29492,-3.74559 0.98361,-5.01641 0.78689,-1.43607 1.98296,-2.16395 3.44264,-2.16395 1.55017,0 2.49443,0.65706 2.95083,1.86886 0.25967,0.6846 0.39344,1.90034 0.39344,3.63936 l 0,16.72138 3.83608,0 0,-15.44268 c 0,-4.46166 1.42427,-6.78692 4.32789,-6.78692 1.47541,0 2.46689,0.65706 2.95083,1.86886 0.33049,0.75148 0.4918,2.04198 0.4918,3.83608 l 0,16.52466 3.93444,0 0,-16.72138 c 0,-2.87214 -0.43278,-4.92198 -1.27869,-6.19674 -0.94427,-1.47148 -2.56132,-2.26231 -4.81969,-2.26231 -2.63608,0 -4.67018,1.22755 -6.09838,3.73772 -0.84591,-2.51017 -2.6951,-3.73772 -5.50822,-3.73772 z m -144.29564,0.59017 0,17.4099 c 0,5.05969 2.27804,7.5738 6.68855,7.5738 2.64394,0 4.70559,-1.08984 6.19674,-3.44263 l 0,3.04919 3.93444,0 c -0.13786,-1.69181 -0.19672,-3.47805 -0.19672,-5.40986 l 0,-19.1804 -3.93444,0 0,14.95088 c 0,4.80002 -1.60132,7.18035 -4.81969,7.18035 -1.73115,0 -2.89181,-0.66492 -3.44264,-2.06558 -0.32262,-0.84984 -0.4918,-2.30558 -0.4918,-4.32789 l 0,-15.73776 -3.93444,0 z m 55.2789,2.2623 c 1.95935,0 3.24985,0.99542 3.93444,3.0492 0.49181,1.44 0.78689,3.91476 0.78689,7.27871 0,3.03739 -0.24394,5.14625 -0.68853,6.49183 -0.68459,2.04984 -2.03804,3.04919 -4.13116,3.04919 -1.7587,0 -3.05706,-0.92459 -3.73772,-2.95083 -0.52328,-1.49902 -0.78689,-3.85182 -0.78689,-7.08199 0,-2.97051 0.2282,-5.18166 0.68853,-6.59019 0.68459,-2.15214 2.00656,-3.24592 3.93444,-3.24592 z m 22.52468,0 c 0.29744,-0.0497 0.65016,0 0.98361,0 1.93574,0 3.14755,0.89706 3.73772,2.85247 0.33049,0.98361 0.4918,2.73444 0.4918,5.11478 l -8.95085,0 c 0,-1.01509 0.0667,-2.1364 0.19672,-3.24592 0.31674,-2.80233 1.45832,-4.37255 3.541,-4.72133 z m -99.34465,5.60658 4.42625,0 c 2.28197,0 3.92657,0.54295 4.91805,1.67214 0.99935,1.12525 1.57378,2.89575 1.57378,5.21313 0,2.60854 -0.67279,4.36723 -1.86886,5.3115 -1.05443,0.8223 -2.83674,1.27869 -5.3115,1.27869 l -3.73772,0 0,-13.47546 z m 142.52514,4.32789 c 0.56363,-0.0551 1.22459,0 1.86886,0 l 0.98361,0 0,2.85247 c 0,1.92787 -0.40525,3.58427 -1.08197,4.81969 -0.87738,1.56984 -2.20722,2.2623 -4.0328,2.2623 -2.41575,0 -3.63936,-1.56197 -3.63936,-4.72133 0,-3.0846 1.9563,-4.82756 5.90166,-5.21313 z m -73.37733,28.32798 c -2.89968,0 -5.28789,0.69639 -6.98363,2.16394 -1.82952,1.56984 -2.75411,3.81641 -2.75411,6.68855 0,2.73837 0.88918,5.01641 2.55738,6.78691 0.9364,0.97181 3.02952,2.47083 6.19675,4.42625 2.28984,1.40853 3.67477,2.29378 4.22952,2.85247 1.23542,1.23935 1.86886,2.89575 1.86886,4.81969 0,3.81641 -1.81377,5.70494 -5.40985,5.70494 -2.1128,0 -3.64723,-0.72394 -4.52461,-2.06558 -0.72,-1.03476 -1.08197,-2.60854 -1.08197,-4.81969 l 0,-0.39345 -4.22953,0 0,0.39345 c 0,3.52132 0.72787,6.07477 2.26231,7.67216 1.57771,1.66033 4.08395,2.45902 7.5738,2.45902 3.00591,0 5.35871,-0.79475 7.08199,-2.36066 1.73509,-1.56198 2.65575,-3.82035 2.65575,-6.88527 0,-2.77772 -0.79476,-5.0597 -2.26231,-6.68856 -0.68065,-0.81836 -2.47869,-2.0341 -5.31149,-3.83608 -3.20657,-2.04984 -4.78035,-3.15148 -4.91805,-3.24591 -1.53837,-1.34164 -2.36067,-2.99018 -2.36067,-5.01641 0,-1.62493 0.46033,-2.99018 1.37706,-3.93444 0.90492,-0.94427 2.20722,-1.37706 3.83608,-1.37706 1.93181,0 3.30099,0.53509 4.13116,1.57378 0.64525,0.84984 0.98361,2.20722 0.98361,4.0328 l 0,0.78689 4.22953,0 0,-1.18033 c 0,-5.71281 -3.0492,-8.55741 -9.14758,-8.55741 z m -66.3937,0.4918 c -2.61247,0 -4.30428,0.76722 -5.21314,2.45903 -0.66098,1.14492 -0.98361,3.13575 -0.98361,5.8033 l 0,2.65575 -3.63935,0 0,2.85247 3.63935,0 0,21.83615 3.83608,0 0,-21.83615 4.22953,0 0,-2.85247 -4.22953,0 0,-3.541 c 0,-1.37312 0.13378,-2.42755 0.39345,-3.04919 0.42492,-0.87738 1.24722,-1.2787 2.45902,-1.2787 0.7082,0 1.19214,-0.0315 1.47542,0 l 0,-2.95083 c -0.61377,-0.063 -1.28263,-0.0982 -1.96722,-0.0982 z m 113.70536,0.19672 0,35.40998 3.83608,0 0,-15.04924 c 0,-4.85904 1.68787,-7.27872 5.01641,-7.27872 1.69968,0 2.79345,0.73181 3.34428,2.16394 0.29492,0.81443 0.39344,2.24264 0.39344,4.32789 l 0,15.83613 3.93444,0 0,-17.50827 c 0,-5.15412 -2.17968,-7.77052 -6.49183,-7.77052 -2.53378,0 -4.59542,1.19607 -6.19674,3.44264 l 0,-13.57383 -3.83608,0 z m 60.78712,0 0,35.40998 3.83608,0 0,-15.04924 c 0,-4.85904 1.68787,-7.27872 5.01641,-7.27872 1.70361,0 2.80132,0.73181 3.34428,2.16394 0.29901,0.81443 0.4918,2.24264 0.4918,4.32789 l 0,15.83613 3.83608,0 0,-17.50827 c 0,-5.15412 -2.17968,-7.77052 -6.49183,-7.77052 -2.54165,0 -4.59542,1.19607 -6.19674,3.44264 l 0,-13.57383 -3.83608,0 z m 142.13169,0 0,13.08202 c -1.23148,-1.92394 -3.12394,-2.95083 -5.60657,-2.95083 -2.96657,0 -5.02822,1.35738 -6.19675,4.0328 -0.88525,1.92394 -1.27869,4.80396 -1.27869,8.55741 0,3.97772 0.33442,6.86167 1.08197,8.75413 1.18427,2.8328 3.33247,4.32789 6.49183,4.32789 2.45115,0 4.40657,-1.09377 5.8033,-3.24591 l 0.0982,2.85247 3.73772,0 c -0.12968,-2.21903 -0.19672,-3.84002 -0.19672,-4.72133 l 0,-30.68865 -3.93444,0 z m -307.08315,0.39345 0,4.62297 3.63936,0 0,-4.62297 -3.63936,0 z m 7.5738,0 0,4.62297 3.73772,0 0,-4.62297 -3.73772,0 z m 64.6232,0.0982 0,4.22953 4.22953,0 0,-4.22953 -4.22953,0 z m 138.49234,0 0,4.22953 4.22952,0 0,-4.22953 -4.22952,0 z m 37.27883,0 0,4.22953 4.22953,0 0,-4.22953 -4.22953,0 z m -20.9509,3.93444 -3.93444,1.7705 0,4.52461 -3.63936,0 0,2.85247 3.63936,0 0,15.93449 c 0,2.24656 0.38951,3.77706 1.08197,4.62297 0.81443,0.9482 2.30558,1.47541 4.52461,1.47541 0.69246,0 1.6446,-0.067 2.85247,-0.19672 l 0,-3.04919 c -0.98361,0.12968 -1.56984,0.19672 -1.7705,0.19672 -1.0741,0 -1.76656,-0.21655 -2.16394,-0.68853 -0.39345,-0.47213 -0.59017,-1.38886 -0.59017,-2.75411 l 0,-15.54104 4.42625,0 0,-2.85247 -4.42625,0 0,-6.29511 z m -135.93495,5.70494 c -3.6551,0 -6.03937,1.45968 -7.27872,4.22953 -0.81443,1.7941 -1.27869,4.76854 -1.27869,9.04921 0,4.26887 0.46426,7.322 1.37705,9.04922 1.20788,2.28591 3.56067,3.44263 7.082,3.44263 5.13444,0 7.67216,-2.72263 7.67216,-8.16396 l -3.73772,0 c -0.0283,1.69968 -0.32656,2.91935 -0.78689,3.73772 -0.62164,1.07803 -1.70755,1.57377 -3.24591,1.57377 -1.73509,0 -2.91936,-0.79082 -3.541,-2.36066 -0.55476,-1.39673 -0.78689,-3.94625 -0.78689,-7.67216 0,-3.25772 0.14573,-5.51215 0.49181,-6.78691 0.62951,-2.18362 2.00263,-3.24592 4.0328,-3.24592 2.54952,0 3.83608,1.75476 3.83608,5.21314 l 3.73772,0 c 0,-2.77378 -0.50754,-4.86297 -1.57378,-6.09839 -1.19213,-1.30623 -3.19476,-1.96722 -6.00002,-1.96722 z m 44.65591,0 c -3.76526,0 -6.29117,1.55804 -7.5738,4.52461 -0.80656,1.88853 -1.18033,4.97313 -1.18033,9.3443 0,3.84001 0.43279,6.6256 1.37705,8.36069 1.27476,2.30951 3.66297,3.54099 7.082,3.54099 5.28789,0 8.042,-2.78165 8.26232,-8.26232 l -3.83608,0 c -0.12968,3.61968 -1.58951,5.40985 -4.42624,5.40985 -1.8846,0 -3.18297,-0.75541 -3.83608,-2.36066 -0.45246,-1.10164 -0.68853,-2.89182 -0.68853,-5.40986 l 0,-1.67214 12.98366,0 0,-1.18033 c 0,-3.94624 -0.35804,-6.72396 -1.08198,-8.36069 -1.16852,-2.60853 -3.56853,-3.93444 -7.08199,-3.93444 z m 60.78712,0 c -3.74952,0 -6.20068,1.55804 -7.47544,4.52461 -0.80656,1.88853 -1.27869,4.97313 -1.27869,9.3443 0,3.84001 0.52328,6.6256 1.47541,8.36069 1.26689,2.30951 3.55674,3.54099 6.98364,3.54099 5.29576,0 8.11675,-2.78165 8.36069,-8.26232 l -3.83609,0 c -0.13377,3.61968 -1.68,5.40985 -4.5246,5.40985 -1.89247,0 -3.0846,-0.75541 -3.73772,-2.36066 -0.4682,-1.10164 -0.68853,-2.89182 -0.68853,-5.40986 l 0,-1.67214 12.8853,0 0,-1.18033 c 0,-3.94624 -0.37378,-6.72396 -1.08198,-8.36069 -1.17639,-2.60853 -3.54493,-3.93444 -7.08199,-3.93444 z m 72.88553,0 c -2.91149,0 -5.03215,1.32591 -6.39347,3.93444 l 0,-3.34427 -3.83608,0 c 0.13755,1.40459 0.19672,3.22231 0.19672,5.40986 l 0,19.27876 3.83608,0 0,-14.85252 c 0,-1.92394 0.32656,-3.61181 1.08197,-5.01641 0.91279,-1.62886 2.26624,-2.45903 3.93445,-2.45903 1.68394,0 2.78951,0.73181 3.34427,2.16395 0.29902,0.77902 0.39344,2.20722 0.39344,4.32788 l 0,15.83613 3.93445,0 0,-17.50827 c 0,-5.12264 -2.16001,-7.77052 -6.49183,-7.77052 z m 56.65595,0 c -3.74952,0 -6.21641,1.55804 -7.47543,4.52461 -0.81443,1.88853 -1.2787,4.97313 -1.2787,9.3443 0,3.84001 0.52328,6.6256 1.47542,8.36069 1.27476,2.30951 3.55673,3.54099 6.98363,3.54099 5.28789,0 8.042,-2.78165 8.26233,-8.26232 l -3.83608,0 c -0.13377,3.61968 -1.58558,5.40985 -4.42625,5.40985 -1.89246,0 -3.19083,-0.75541 -3.83608,-2.36066 -0.46033,-1.10164 -0.68853,-2.89182 -0.68853,-5.40986 l 0,-1.67214 12.98366,0 0,-1.18033 c 0,-3.94624 -0.3659,-6.72396 -1.08197,-8.36069 -1.1764,-2.60853 -3.55674,-3.93444 -7.082,-3.93444 z m -295.0831,0.0982 c -2.83674,0 -4.85117,1.25508 -6.19675,3.73772 l 0,-3.24592 -3.83608,0 c 0.1023,1.34558 0.0982,2.85641 0.0982,4.52461 l 0,20.16401 3.93445,0 0,-15.34432 c 0,-1.89247 0.44852,-3.37969 1.37705,-4.52461 0.92066,-1.13312 2.36853,-1.67214 4.22953,-1.67214 0.16115,0 0.3895,0.0315 0.78688,0.0982 0,-2.48263 -0.13377,-3.73772 -0.39344,-3.73772 z m 128.95131,0 c -2.82886,0 -4.96526,1.25508 -6.2951,3.73772 l 0,-3.24592 -3.83608,0 c 0.10229,1.34558 0.19672,2.85641 0.19672,4.52461 l 0,20.16401 3.83608,0 0,-15.34432 c 0,-1.89247 0.53902,-3.37969 1.47542,-4.52461 0.92066,-1.13312 2.2741,-1.67214 4.13116,-1.67214 0.16147,0 0.48787,0.0315 0.88525,0.0982 0,-2.48263 -0.13377,-3.73772 -0.39345,-3.73772 z m 190.32861,0 c -2.84854,0 -4.94953,1.25508 -6.29511,3.73772 l 0,-3.24592 -3.83608,0 c 0.0906,1.34558 0.19672,2.85641 0.19672,4.52461 l 0,20.16401 3.93445,0 0,-15.34432 c 0,-1.89247 0.45246,-3.37969 1.37705,-4.52461 0.9364,-1.13312 2.27411,-1.67214 4.13116,-1.67214 0.16147,0 0.50755,0.0315 0.88525,0.0982 0,-2.48263 -0.12968,-3.73772 -0.39344,-3.73772 z m -352.9194,0.4918 0,17.50827 c 0,5.05182 2.18755,7.5738 6.59019,7.5738 2.64395,0 4.68986,-1.19607 6.19675,-3.541 l 0,3.14755 3.93444,0 c -0.13,-1.69574 -0.19672,-3.58034 -0.19672,-5.50822 l 0,-19.1804 -3.93445,0 0,14.95088 c 0,4.80002 -1.59344,7.18035 -4.81969,7.18035 -1.72722,0 -2.88788,-0.66492 -3.44263,-2.06558 -0.3305,-0.84984 -0.49181,-2.30165 -0.49181,-4.32788 l 0,-15.73777 -3.83608,0 z m 75.04947,0 0,24.68862 3.83608,0 0,-24.68862 -3.83608,0 z m 138.49234,0 0,24.68862 3.83608,0 0,-24.68862 -3.83608,0 z m 37.27883,0 0,24.68862 3.93445,0 0,-24.68862 -3.93445,0 z m -112.52502,2.26231 c 1.93181,0 3.25378,0.99934 3.83608,2.95083 0.33049,0.98361 0.4918,2.63607 0.4918,5.01641 l -9.04921,0 c 0,-1.01115 0.067,-2.03804 0.19672,-3.14755 0.36197,-3.1987 1.85312,-4.81969 4.52461,-4.81969 z m 60.88548,0 c 1.91607,0 3.15542,0.99934 3.73772,2.95083 0.32262,0.98361 0.4918,2.63607 0.4918,5.01641 l -8.95085,0 c 0,-1.01115 0.0749,-2.03804 0.19672,-3.14755 0.36197,-3.1987 1.83739,-4.81969 4.52461,-4.81969 z m 106.0332,0 c 1.96722,0 3.25378,1.09377 3.93444,3.14755 0.4918,1.43607 0.78689,3.81641 0.78689,7.18035 0,3.03739 -0.23607,5.24461 -0.68853,6.59019 -0.69246,2.05378 -2.1364,3.0492 -4.22952,3.0492 -1.75083,0 -2.9469,-1.02296 -3.63936,-3.0492 -0.51542,-1.50295 -0.78689,-3.85181 -0.78689,-7.08199 0,-2.96657 0.2282,-5.18166 0.68853,-6.59019 0.67672,-2.15214 2.0105,-3.24591 3.93444,-3.24591 z m 23.50828,0 c 1.92395,0 3.15543,0.99934 3.73772,2.95083 0.3305,0.98361 0.49181,2.63607 0.49181,5.01641 l -9.04922,0 c 0,-1.01115 0.0749,-2.03804 0.19673,-3.14755 0.36196,-3.1987 1.94361,-4.81969 4.62296,-4.81969 z m -299.01754,38.75424 c -2.60461,0 -4.40264,0.86952 -5.3115,2.55739 -0.65312,1.14492 -0.98361,3.03739 -0.98361,5.70494 l 0,2.65575 -3.541,0 0,2.85247 3.541,0 0,21.83615 3.93444,0 0,-21.83615 4.13116,0 0,-2.85247 -4.13116,0 0,-3.541 c 0,-1.37705 0.13377,-2.32919 0.39344,-2.95083 0.42492,-0.87345 1.25509,-1.37705 2.45903,-1.37705 0.71607,0 1.18427,0.063 1.47542,0.0982 l 0,-3.04919 c -0.61378,-0.063 -1.27476,-0.0982 -1.96722,-0.0982 z m -43.47558,0.19673 0,35.40997 4.22952,0 0,-35.40997 -4.22952,0 z m 292.23064,0 0,35.40997 3.83608,0 0,-14.95088 c 0,-4.85903 1.68787,-7.27872 5.01641,-7.27872 1.68787,0 2.79345,0.63345 3.34427,2.06559 0.29115,0.81443 0.49181,2.34492 0.49181,4.42624 l 0,15.73777 3.83608,0 0,-17.50827 c 0,-5.15411 -2.17181,-7.67216 -6.49183,-7.67216 -2.54165,0 -4.59936,1.10165 -6.19674,3.34428 l 0,-13.57382 -3.83608,0 z m 58.81989,0 0,35.40997 3.83609,0 0,-35.40997 -3.83609,0 z m -193.08271,0.4918 0,4.22953 4.22953,0 0,-4.22953 -4.22953,0 z m 181.67283,0 0,4.22953 4.32789,0 0,-4.22953 -4.32789,0 z m -190.82041,4.0328 -3.93444,1.67214 0,4.52461 -3.63935,0 0,2.85247 3.63935,0 0,15.93449 c 0,2.24656 0.40525,3.87542 1.08197,4.72133 0.81443,0.95213 2.29772,1.37705 4.52461,1.37705 0.6846,0 1.6446,-0.0708 2.85247,-0.19672 l 0,-3.04919 c -0.98361,0.1259 -1.58951,0.19672 -1.7705,0.19672 -1.0859,0 -1.77049,-0.21624 -2.16394,-0.68853 -0.39738,-0.47607 -0.59017,-1.38492 -0.59017,-2.75411 l 0,-15.54104 4.32789,0 0,-2.85247 -4.32789,0 0,-6.19675 z m 91.37741,0 -3.93444,1.67214 0,4.52461 -3.63936,0 0,2.85247 3.63936,0 0,15.93449 c 0,2.24656 0.38951,3.87542 1.08197,4.72133 0.81443,0.95213 2.31738,1.37705 4.5246,1.37705 0.69247,0 1.6446,-0.0708 2.85247,-0.19672 l 0,-3.04919 c -0.97574,0.1259 -1.57771,0.19672 -1.77049,0.19672 -1.08198,0 -1.8728,-0.21624 -2.26231,-0.68853 -0.39344,-0.47607 -0.4918,-1.38492 -0.4918,-2.75411 l 0,-15.54104 4.32788,0 0,-2.85247 -4.32788,0 0,-6.19675 z m -218.06642,5.70494 c -2.89575,0 -5.02428,1.32591 -6.39347,3.93444 l 0,-3.44263 -3.83608,0 c 0.13787,1.40459 0.19672,3.22231 0.19672,5.40986 l 0,19.27876 3.83609,0 0,-14.85252 c 0,-1.93181 0.43278,-3.61182 1.18033,-5.01641 0.91279,-1.62493 2.17574,-2.36067 3.83608,-2.36067 1.70755,0 2.79739,0.63345 3.34427,2.06559 0.29902,0.78295 0.49181,2.30951 0.49181,4.42624 l 0,15.73777 3.83608,0 0,-17.50827 c 0,-5.12264 -2.14821,-7.67216 -6.49183,-7.67216 z m 36.00014,0 c -3.58034,0 -6.07871,1.25902 -7.37708,3.83608 -0.98361,1.89247 -1.47541,4.99674 -1.47541,9.24594 0,4.39871 0.46426,7.42036 1.37705,9.14758 1.20787,2.28591 3.61969,3.44263 7.18036,3.44263 3.49378,0 5.80723,-1.15672 7.08199,-3.44263 1.01509,-1.86099 1.57378,-5.04789 1.57378,-9.54102 0,-4.43412 -0.42886,-7.48725 -1.2787,-9.14758 -1.17639,-2.38034 -3.51739,-3.541 -7.08199,-3.541 z m 24.59026,0 c -2.85247,0 -4.94953,1.25902 -6.29511,3.73772 l 0,-3.24591 -3.83608,0 c 0.0944,1.33377 0.19672,2.8564 0.19672,4.52461 l 0,20.16401 3.83608,0 0,-15.24596 c 0,-1.88853 0.44853,-3.47805 1.37706,-4.62297 0.93246,-1.13312 2.36066,-1.67214 4.22952,-1.67214 0.15329,0 0.49968,0.0356 0.88525,0.0982 0,-2.4787 -0.13377,-3.73772 -0.39344,-3.73772 z m 14.45907,0 c -2.58099,0 -4.4892,1.22361 -5.8033,3.73772 l 0,-3.24591 -3.83608,0 c 0.14164,1.36918 0.19672,2.8564 0.19672,4.32788 l 0,20.36074 3.83608,0 0,-15.1476 c 0,-2.03017 0.39345,-3.64329 1.08197,-4.91805 0.77902,-1.43214 1.8846,-2.16395 3.34428,-2.16395 1.52656,0 2.48657,0.66099 2.95083,1.86886 0.25967,0.68853 0.39344,1.81378 0.39344,3.541 l 0,16.81974 3.93445,0 0,-15.54105 c 0,-4.46559 1.43213,-6.68855 4.32788,-6.68855 1.47542,0 2.4669,0.66099 2.95083,1.86886 0.33049,0.75542 0.49181,1.93968 0.49181,3.73772 l 0,16.62302 3.83608,0 0,-16.81974 c 0,-2.86034 -0.43279,-4.92198 -1.2787,-6.19674 -0.94426,-1.46755 -2.56919,-2.16395 -4.81969,-2.16395 -2.64394,0 -4.67018,1.22361 -6.09838,3.73772 -0.86164,-2.51411 -2.71083,-3.73772 -5.50822,-3.73772 z m 32.5575,0 c -2.37246,0 -4.30034,0.49181 -5.70494,1.47542 -1.62886,1.10164 -2.45902,2.76591 -2.45902,5.01641 l 0,0.19672 3.83608,0 0,-0.19672 c 0,-1.16459 0.40525,-2.09706 1.18033,-2.75411 0.79082,-0.65311 1.77443,-0.98361 2.95083,-0.98361 1.69181,0 2.82887,0.65705 3.34428,1.96722 0.33049,0.77509 0.4918,2.20722 0.4918,4.22953 l 0,1.08197 c -4.03673,0.0315 -6.99543,0.47213 -8.75413,1.27869 -2.66755,1.20788 -3.93444,3.48985 -3.93444,6.98364 0,2.15214 0.45246,3.9069 1.47541,5.21313 1.13706,1.37312 2.73444,2.06558 4.81969,2.06558 2.75018,0 4.93773,-1.22361 6.59019,-3.63936 l 0.0982,3.24592 3.73772,0 c -0.16934,-2.28985 -0.19672,-4.90625 -0.19672,-7.86888 l 0,-9.14758 c 0,-2.87608 -0.54296,-4.8551 -1.57378,-6.09838 -1.12132,-1.36526 -3.05706,-2.06559 -5.90166,-2.06559 z m 47.41002,0 c -3.59214,0 -5.96461,1.25902 -7.27871,3.83608 -0.97574,1.89247 -1.47542,4.99674 -1.47542,9.24594 0,4.39871 0.4682,7.42036 1.37706,9.14758 1.20787,2.28591 3.51739,3.44263 7.08199,3.44263 3.48198,0 5.92133,-1.15672 7.18036,-3.44263 1.02295,-1.86099 1.47541,-5.04789 1.47541,-9.54102 0,-4.43412 -0.43279,-7.48725 -1.27869,-9.14758 -1.16853,-2.38034 -3.53313,-3.541 -7.082,-3.541 z m 24.68862,0 c -2.89575,0 -5.02428,1.32591 -6.39346,3.93444 l 0,-3.44263 -3.83608,0 c 0.13754,1.40459 0.29492,3.22231 0.29492,5.40986 l 0,19.27876 3.83608,0 0,-14.85252 c 0,-1.93181 0.33443,-3.61182 1.08197,-5.01641 0.91279,-1.62493 2.18362,-2.36067 3.83608,-2.36067 1.69968,0 2.87608,0.63345 3.44264,2.06559 0.28737,0.78295 0.39344,2.30951 0.39344,4.42624 l 0,15.73777 3.93445,0 0,-17.50827 c 0,-5.12264 -2.25051,-7.67216 -6.59019,-7.67216 z m 20.16402,0 c -2.19149,0 -3.91477,0.52328 -5.21314,1.57378 -1.40853,1.10164 -2.06558,2.69509 -2.06558,4.81969 0,1.88853 0.62558,3.37969 1.86886,4.52461 0.62164,0.5823 2.10099,1.50689 4.42625,2.75411 1.68394,0.90885 2.76197,1.64066 3.24591,2.16394 0.79476,0.77902 1.18033,1.87673 1.18033,3.24591 0,2.54952 -1.26295,3.83608 -3.73772,3.83608 -2.18361,0 -3.39935,-1.36525 -3.63936,-3.93444 -0.0315,-0.42885 0,-0.88918 0,-1.37705 l -3.93444,0 c -0.0944,5.3233 2.40788,8.0656 7.47544,8.0656 5.15412,0 7.67216,-2.4905 7.67216,-7.27871 0,-1.86099 -0.49574,-3.38756 -1.67214,-4.62297 -0.7436,-0.74755 -2.1482,-1.67607 -4.13116,-2.75411 -1.82951,-0.97574 -2.9587,-1.71148 -3.44264,-2.16394 -0.94426,-0.79083 -1.47541,-1.74296 -1.47541,-2.85247 0,-1.01509 0.29115,-1.73509 0.88525,-2.36067 0.5823,-0.62164 1.34558,-0.98361 2.36066,-0.98361 2.31346,0 3.541,1.56591 3.541,4.62297 l 3.83608,0 c -0.0749,-2.47476 -0.6059,-4.30821 -1.67214,-5.50822 -1.0859,-1.1882 -2.9587,-1.7705 -5.50821,-1.7705 z m 35.31161,0 c -3.74166,0 -6.29904,1.45968 -7.5738,4.42625 -0.81443,1.88853 -1.18033,5.06756 -1.18033,9.44266 0,3.84001 0.44852,6.6256 1.37705,8.36069 1.27869,2.30951 3.6551,3.44263 7.08199,3.44263 5.28002,0 8.02233,-2.78165 8.26233,-8.26232 l -3.83608,0 c -0.12181,3.61968 -1.58951,5.50821 -4.42625,5.50821 -1.88853,0 -3.18296,-0.85377 -3.83608,-2.45902 -0.46033,-1.10164 -0.68852,-2.90362 -0.68852,-5.40986 l 0,-1.67214 12.98365,0 0,-1.08197 c 0,-3.94231 -0.36197,-6.72396 -1.08197,-8.36069 -1.1764,-2.60853 -3.54886,-3.93444 -7.08199,-3.93444 z m 21.83615,0 c -3.65116,0 -6.0433,1.36132 -7.27872,4.13117 -0.81443,1.79804 -1.27869,4.8669 -1.27869,9.14757 0,4.26887 0.46426,7.22364 1.37705,8.95086 1.20788,2.28591 3.56067,3.44263 7.082,3.44263 5.1187,0 7.77052,-2.70689 7.77052,-8.16396 l -3.83608,0 c -0.0394,1.70755 -0.31869,2.92329 -0.78689,3.73772 -0.61771,1.0859 -1.70755,1.67213 -3.24591,1.67213 -1.73509,0 -2.821,-0.79475 -3.44264,-2.36066 -0.55476,-1.39673 -0.88525,-3.95018 -0.88525,-7.67216 0,-3.25772 0.23607,-5.61051 0.59017,-6.88527 0.61377,-2.18362 1.92,-3.24592 3.93444,-3.24592 2.54952,0 3.83608,1.7587 3.83608,5.21314 l 3.83608,0 c 0,-2.77772 -0.59017,-4.75674 -1.67214,-6.00003 -1.16853,-1.29836 -3.1869,-1.96722 -6.00002,-1.96722 z m 46.91821,0 c -2.90362,0 -5.02428,1.32591 -6.39347,3.93444 l 0,-3.44263 -3.83608,0 c 0.13755,1.40459 0.19673,3.22231 0.19673,5.40986 l 0,19.27876 3.83608,0 0,-14.85252 c 0,-1.93181 0.42098,-3.61182 1.18033,-5.01641 0.91279,-1.62493 2.17181,-2.36067 3.83608,-2.36067 1.69181,0 2.79739,0.63345 3.34427,2.06559 0.29902,0.78295 0.49181,2.30951 0.49181,4.42624 l 0,15.73777 3.83608,0 0,-17.50827 c 0,-5.12264 -2.1482,-7.67216 -6.49183,-7.67216 z m -167.90229,0.49181 0,24.68862 3.83608,0 0,-24.68862 -3.83608,0 z m 181.67284,0 0,24.68862 3.93444,0 0,-24.68862 -3.93444,0 z m 22.62304,0 -7.37708,10.91807 8.0656,13.77055 4.52461,0 -8.45905,-13.86891 7.67216,-10.81971 -4.42624,0 z m -304.42741,2.2623 c 2.0223,0 3.3128,0.95607 3.93444,2.95083 0.33049,1.07411 0.49181,3.10034 0.49181,5.90167 l 0,3.73771 c 0,2.25051 -0.23229,3.91477 -0.68853,5.01642 -0.68066,1.67214 -2.00263,2.55738 -3.93444,2.55738 -1.99083,0 -3.34034,-0.92852 -4.03281,-2.65574 -0.39344,-1.01509 -0.4918,-2.73051 -0.4918,-5.11478 l 0,-3.44263 c 0,-2.7069 0.13786,-4.68199 0.4918,-5.8033 0.6846,-2.11673 2.10886,-3.14756 4.22953,-3.14756 z m 119.01685,0 c 2.03804,0 3.41116,0.95607 4.0328,2.95083 0.3305,1.07411 0.39345,3.10034 0.39345,5.90167 l 0,3.73771 c 0,2.25051 -0.2282,3.91477 -0.68853,5.01642 -0.69246,1.67214 -1.90033,2.55738 -3.83608,2.55738 -1.98296,0 -3.34427,-0.92852 -4.0328,-2.65574 -0.38558,-1.01509 -0.59017,-2.73051 -0.59017,-5.11478 l 0,-3.44263 c 0,-2.7069 0.12968,-4.68199 0.49181,-5.8033 0.68459,-2.11673 2.11673,-3.14756 4.22952,-3.14756 z m 80.26261,0 c 1.92787,0 3.14755,0.99542 3.73772,2.95083 0.32262,0.97968 0.4918,2.63214 0.4918,5.01642 l -9.04921,0 c 0,-1.01116 0.067,-2.03804 0.19672,-3.14756 0.3541,-3.1987 1.94755,-4.81969 4.62297,-4.81969 z m -124.91852,9.93447 0.98361,0 0,2.95083 c 0,1.92394 -0.38951,3.48198 -1.08197,4.72133 -0.86951,1.56984 -2.19542,2.36066 -4.0328,2.36066 -2.40788,0 -3.63936,-1.56197 -3.63936,-4.72133 0,-3.52526 2.6046,-5.31149 7.77052,-5.31149 z" id="path292" style="fill:#231f20;fill-opacity:1;fill-rule:nonzero;stroke:none"/>
  </g>
</svg>