<?xml version="1.0" encoding="UTF-8"?>
<!DOCTYPE svg  PUBLIC '-//W3C//DTD SVG 1.1//EN'  'http://www.w3.org/Graphics/SVG/1.1/DTD/svg11.dtd'>
<svg clip-rule="evenodd" fill-rule="evenodd" stroke-linejoin="round" stroke-miterlimit="1.4142" version="1.1" viewBox="0 0 256 152" xml:space="preserve" xmlns="http://www.w3.org/2000/svg">
    <g transform="translate(-1068)">
        <g id="Logo_Colors_RGB" transform="translate(1068)">
            <rect width="256" height="152" fill="none"/>
            <g transform="translate(-1068)">
                <path d="m1181.5 94.365c-2.28 1.05-4.82 1.635-7.5 1.635-9.93 0-18-8.066-18-18v-21h8v21c0 6.071 4.48 11 10 11 2.99 0 5.67-1.442 7.5-3.727v9.092z" fill="#89cc53"/>
            </g>
            <g transform="translate(-1068)">
                <path d="m1117 40v20.003c3.34-2.513 7.5-4.003 12-4.003 3.24 0 6.29 0.77 9 2.138v9.416c-2.29-2.787-5.7-4.554-9.5-4.554-6.9 0-12.5 5.825-12.5 13s5.6 13 12.5 13c3.8 0 7.21-1.767 9.5-4.554v9.416c-2.71 1.368-5.76 2.138-9 2.138-4.78 0-9.17-1.681-12.61-4.483l-0.39 3.483h-7v-18h0.03c-0.02-0.331-0.03-0.665-0.03-1v-36h8z" fill="#238647"/>
            </g>
            <g transform="translate(-1068)">
                <path d="m1123.5 56.767c1.75-0.499 3.59-0.767 5.5-0.767 11.04 0 20 8.962 20 20s-8.96 20-20 20c-1.91 0-3.75-0.268-5.5-0.767v-7.316c1.53 0.696 3.22 1.083 5 1.083 6.9 0 12.5-5.825 12.5-13s-5.6-13-12.5-13c-1.78 0-3.47 0.387-5 1.083v-7.316z" fill="#2f9b47"/>
            </g>
            <g transform="translate(-1068)">
                <path d="m1138 58.138c6.52 3.296 11 10.06 11 17.862s-4.48 14.566-11 17.862v-9.416c1.87-2.273 3-5.223 3-8.446s-1.13-6.173-3-8.446v-9.416z" fill="#62b64f"/>
            </g>
            <rect width="256" height="152" fill="none"/>
            <g transform="translate(-1068)">
                <path d="m1167 85.852c1.8 1.947 4.28 3.148 7 3.148 5.52 0 10-4.929 10-11v-21h8v21c0 9.934-8.07 18-18 18-2.48 0-4.85-0.504-7-1.414v-8.734z" fill="#3db8ad"/>
            </g>
            <g transform="translate(-1068)">
                <path d="m1181.5 85.273c1.56-1.94 2.5-4.486 2.5-7.273v-21h8v21c0 7.259-4.31 13.519-10.5 16.365v-9.092z" fill="#3394d7"/>
            </g>
            <g transform="translate(-1068)">
                <path d="m1225 66.148c-1.8-1.947-4.28-3.148-7-3.148-5.52 0-10 4.929-10 11v21h-8v-21c0-9.934 8.07-18 18-18 2.48 0 4.85 0.504 7 1.414v8.734z" fill="#2872bc"/>
            </g>
            <g transform="translate(-1068)">
                <path d="m1210.5 57.635c2.28-1.05 4.82-1.635 7.5-1.635 9.93 0 18 8.066 18 18v21h-8v-21c0-6.071-4.48-11-10-11-2.99 0-5.67 1.442-7.5 3.727v-9.092z" fill="#1d5c84"/>
            </g>
            <g transform="translate(-1068)">
                <path d="m1225 57.414c6.46 2.733 11 9.134 11 16.586v21h-8v-21c0-3.074-1.15-5.856-3-7.852v-8.734z" fill="#993233"/>
            </g>
            <g transform="translate(-1068)">
                <path d="m1268.5 95.233c-1.75 0.499-3.59 0.767-5.5 0.767-11.04 0-20-8.962-20-20s8.96-20 20-20c1.91 0 3.75 0.268 5.5 0.767v7.316c-1.53-0.696-3.22-1.083-5-1.083-6.9 0-12.5 5.825-12.5 13s5.6 13 12.5 13c1.78 0 3.47-0.387 5-1.083v7.316z" fill="#e13030"/>
            </g>
            <g transform="translate(-1068)">
                <path d="m1254 58.138c2.71-1.368 5.76-2.138 9-2.138 4.78 0 9.17 1.681 12.61 4.483l0.39-3.483h7v18h-0.02c0.01 0.331 0.02 0.665 0.02 1v36h-8v-20.003c-3.34 2.513-7.5 4.003-12 4.003-3.24 0-6.29-0.77-9-2.138v-9.416c2.29 2.787 5.7 4.554 9.5 4.554 6.9 0 12.5-5.825 12.5-13s-5.6-13-12.5-13c-3.8 0-7.21 1.767-9.5 4.554v-9.416z" fill="#f28825"/>
            </g>
            <g transform="translate(-1068)">
                <path d="m1268.5 56.767c2.63 0.753 5.04 2.032 7.11 3.716l0.39-3.483h7v18h-0.02c0.01 0.331 0.02 0.665 0.02 1v36h-8v-20.003c-1.93 1.448-4.12 2.557-6.5 3.236v-7.316c4.41-2.008 7.5-6.591 7.5-11.917s-3.09-9.909-7.5-11.917v-7.316z" fill="#f5c836"/>
            </g>
        </g>
    </g>
</svg>
