<?xml version="1.0" encoding="UTF-8"?>
<svg width="580" height="113" fill="none" viewBox="0 0 580 113" xmlns="http://www.w3.org/2000/svg">
 <path d="m335.46 95c-10.77 0-19.63-6.49-19.79-17.89h51c0.668-3.0141 1.004-6.0926 1-9.1799 0-20.59-14.09-33.73-34.83-33.73-22.17 0-37.37 17.26-37.37 38.63 0 23.75 16.47 39.59 39.74 39.59 17.58 0 29.77-8.87 35-23.44l-17.33-6.77c-2.38 8.52-8.24 12.79-17.42 12.79zm-2.69-44.49c9 0 15.2 4.91 15.2 12.51l-0.16 0.63h-32.14c1.9-8.23 8.87-13.14 17.1-13.14z" fill="#fff"/>
 <path d="m437.73 52.41v-16.63h-65.39v17.42h39.9l-41.17 40.22v17.41h67.77v-18.21h-42.44l41.33-40.21z" fill="#fff"/>
 <path d="m559.86 60.01c6e-3 1.2609-0.078 2.5207-0.25 3.77h19.21c0.467-2.442 0.691-4.924 0.67-7.41 0-12.83-8.07-22.17-21.53-22.17-8.71 0-14.88 4.2799-18.05 11.24v-9.6499h-20.26v75h20.26v-48.25c0-7.6 4.12-11.87 10.45-11.87 5.7 0 9.5 3.8 9.5 9.34z" fill="#fff"/>
 <path d="m195 47.03c-4.6-7.76-13.15-12.83-23.75-12.83-20.59 0-35.63 15.84-35.63 39.43 0 23.27 14.89 38.79 36.1 38.79 10.61 0 19.16-4.6 24.07-12.35v10.76h19.47v-110.83h-20.26v47.03zm-19.17 48.18c-11.24 0-20-8.23-20-21.53 0-13.46 8.71-22 20-22 10.92 0 19.95 8.55 19.95 22 0 13.25-9.03 21.53-19.95 21.53z" fill="#fff"/>
 <path d="m479.81 95c-10.77 0-19.63-6.49-19.79-17.89h51c0.669-3.0141 1.004-6.0926 1-9.1799 0-20.59-14.09-33.73-34.83-33.73-22.17 0-37.37 17.26-37.37 38.63 0 23.75 16.47 39.59 39.74 39.59 17.58 0 29.77-8.87 35-23.44l-17.34-6.77c-2.37 8.52-8.22 12.79-17.41 12.79zm-2.69-44.49c9 0 15.2 4.91 15.2 12.51l-0.16 0.63h-32.16c1.92-8.23 8.88-13.14 17.12-13.14z" fill="#fff"/>
 <path d="m260.63 95c-10.77 0-19.63-6.49-19.79-17.89h51c0.657-3.0152 0.975-6.0942 0.95-9.1799 0-20.59-14.09-33.73-34.83-33.73-22.17 0-37.37 17.26-37.37 38.63 0 23.75 16.47 39.59 39.74 39.59 17.58 0 29.77-8.87 35-23.44l-17.28-6.77c-2.38 8.52-8.24 12.79-17.42 12.79zm-2.69-44.49c9 0 15.2 4.91 15.2 12.51l-0.16 0.63h-32.14c1.9-8.23 8.87-13.14 17.1-13.14z" fill="#fff"/>
 <path d="m115.35 35.73h-24.83v14.49h24.83v-14.49z" fill="#29AB70"/>
 <path d="m115.35 55.91h-24.83v14.49h24.83v-14.49z" fill="url(#paint0_linear)"/>
 <path d="m115.35 76.08h-24.83v14.49h24.83v-14.49z" fill="url(#paint1_linear)"/>
 <path d="m25.34 96.26h-24.83v14.49h24.83v-14.49z" fill="url(#paint2_linear)"/>
 <path d="m55.34 96.26h-24.83v14.49h24.83v-14.49z" fill="url(#paint3_linear)"/>
 <path d="m85.35 96.26h-24.83v14.49h24.83v-14.49z" fill="url(#paint4_linear)"/>
 <path d="m115.35 96.26h-24.83v14.49h24.83v-14.49z" fill="url(#paint5_linear)"/>
 <path d="m85.35 76.08h-24.83v14.49h24.83v-14.49z" fill="url(#paint6_linear)"/>
 <path d="m55.34 76.08h-24.83v14.49h24.83v-14.49z" fill="url(#paint7_linear)"/>
 <path d="m55.34 55.91h-24.83v14.49h24.83v-14.49z" fill="url(#paint8_linear)"/>
 <path d="m335.46 95c-10.77 0-19.63-6.49-19.79-17.89h51c0.668-3.0141 1.004-6.0926 1-9.1799 0-20.59-14.09-33.73-34.83-33.73-22.17 0-37.37 17.26-37.37 38.63 0 23.75 16.47 39.59 39.74 39.59 17.58 0 29.77-8.87 35-23.44l-17.33-6.77c-2.38 8.52-8.24 12.79-17.42 12.79zm-2.69-44.49c9 0 15.2 4.91 15.2 12.51l-0.16 0.63h-32.14c1.9-8.23 8.87-13.14 17.1-13.14z" fill="#000"/>
 <path d="m437.73 52.41v-16.63h-65.39v17.42h39.9l-41.17 40.22v17.41h67.77v-18.21h-42.44l41.33-40.21z" fill="#000"/>
 <path d="m559.86 60.01c6e-3 1.2609-0.078 2.5207-0.25 3.77h19.21c0.467-2.442 0.691-4.924 0.67-7.41 0-12.83-8.07-22.17-21.53-22.17-8.71 0-14.88 4.2799-18.05 11.24v-9.6499h-20.26v75h20.26v-48.25c0-7.6 4.12-11.87 10.45-11.87 5.7 0 9.5 3.8 9.5 9.34z" fill="#000"/>
 <path d="m195 47.03c-4.6-7.76-13.15-12.83-23.75-12.83-20.59 0-35.63 15.84-35.63 39.43 0 23.27 14.89 38.79 36.1 38.79 10.61 0 19.16-4.6 24.07-12.35v10.76h19.47v-110.83h-20.26v47.03zm-19.17 48.18c-11.24 0-20-8.23-20-21.53 0-13.46 8.71-22 20-22 10.92 0 19.95 8.55 19.95 22 0 13.25-9.03 21.53-19.95 21.53z" fill="#000"/>
 <path d="m479.81 95c-10.77 0-19.63-6.49-19.79-17.89h51c0.669-3.0141 1.004-6.0926 1-9.1799 0-20.59-14.09-33.73-34.83-33.73-22.17 0-37.37 17.26-37.37 38.63 0 23.75 16.47 39.59 39.74 39.59 17.58 0 29.77-8.87 35-23.44l-17.34-6.77c-2.37 8.52-8.22 12.79-17.41 12.79zm-2.69-44.49c9 0 15.2 4.91 15.2 12.51l-0.16 0.63h-32.16c1.92-8.23 8.88-13.14 17.12-13.14z" fill="#000"/>
 <path d="m260.63 95c-10.77 0-19.63-6.49-19.79-17.89h51c0.657-3.0152 0.975-6.0942 0.95-9.1799 0-20.59-14.09-33.73-34.83-33.73-22.17 0-37.37 17.26-37.37 38.63 0 23.75 16.47 39.59 39.74 39.59 17.58 0 29.77-8.87 35-23.44l-17.28-6.77c-2.38 8.52-8.24 12.79-17.42 12.79zm-2.69-44.49c9 0 15.2 4.91 15.2 12.51l-0.16 0.63h-32.14c1.9-8.23 8.87-13.14 17.1-13.14z" fill="#000"/>
 <defs>
  <linearGradient id="paint0_linear" x1="104.55" x2="101.32" y1="72.3" y2="54" gradientUnits="userSpaceOnUse">
   <stop stop-color="#2C8C9D" offset="0"/>
   <stop stop-color="#298E9A" offset=".04"/>
   <stop stop-color="#129C83" offset=".39"/>
   <stop stop-color="#05A475" offset=".72"/>
   <stop stop-color="#00A770" offset="1"/>
  </linearGradient>
  <linearGradient id="paint1_linear" x1="90.15" x2="115.72" y1="89.84" y2="76.81" gradientUnits="userSpaceOnUse">
   <stop stop-color="#2839BA" offset="0"/>
   <stop stop-color="#148CB3" offset="1"/>
  </linearGradient>
  <linearGradient id="paint2_linear" x1=".50977" x2="25.34" y1="103.5" y2="103.5" gradientUnits="userSpaceOnUse">
   <stop stop-color="#F6A500" offset="0"/>
   <stop stop-color="#F29100" offset="1"/>
  </linearGradient>
  <linearGradient id="paint3_linear" x1="30.51" x2="55.34" y1="103.5" y2="103.5" gradientUnits="userSpaceOnUse">
   <stop stop-color="#F29100" offset="0"/>
   <stop stop-color="#D12F5F" offset="1"/>
  </linearGradient>
  <linearGradient id="paint4_linear" x1="60.52" x2="85.35" y1="103.5" y2="103.5" gradientUnits="userSpaceOnUse">
   <stop stop-color="#B4197C" offset="0"/>
   <stop stop-color="#472EAD" offset="1"/>
  </linearGradient>
  <linearGradient id="paint5_linear" x1="90.52" x2="115.35" y1="103.5" y2="103.5" gradientUnits="userSpaceOnUse">
   <stop stop-color="#2839BA" offset="0"/>
   <stop stop-color="#3072B7" offset="1"/>
  </linearGradient>
  <linearGradient id="paint6_linear" x1="59.54" x2="86.32" y1="87.24" y2="79.41" gradientUnits="userSpaceOnUse">
   <stop stop-color="#B4197C" offset="0"/>
   <stop stop-color="#373AAC" offset="1"/>
  </linearGradient>
  <linearGradient id="paint7_linear" x1="29.64" x2="56.22" y1="78.49" y2="88.16" gradientUnits="userSpaceOnUse">
   <stop stop-color="#FFCB00" offset="0"/>
   <stop stop-color="#D12F5F" offset="1"/>
  </linearGradient>
  <linearGradient id="paint8_linear" x1="32.61" x2="53.24" y1="53.63" y2="72.67" gradientUnits="userSpaceOnUse">
   <stop stop-color="#FFCF00" offset="0"/>
   <stop stop-color="#ED743B" offset="1"/>
  </linearGradient>
 </defs>
</svg>
