<?xml version="1.0" encoding="UTF-8" standalone="no"?>
<svg xmlns:dc="http://purl.org/dc/elements/1.1/" xmlns:cc="http://creativecommons.org/ns#" xmlns:rdf="http://www.w3.org/1999/02/22-rdf-syntax-ns#" xmlns:svg="http://www.w3.org/2000/svg" xmlns="http://www.w3.org/2000/svg" xmlns:sodipodi="http://sodipodi.sourceforge.net/DTD/sodipodi-0.dtd" xmlns:inkscape="http://www.inkscape.org/namespaces/inkscape" version="1.1" viewBox="0 0 662.9203 361.72705" id="svg8" sodipodi:docname="European_Parliament_logo.svg" inkscape:version="0.92.1 r15371" width="662.92029" height="361.72705">
  <metadata id="metadata14">
    <rdf:RDF>
      <cc:Work rdf:about="">
        <dc:format>image/svg+xml</dc:format>
        <dc:type rdf:resource="http://purl.org/dc/dcmitype/StillImage"/>
        <dc:title/>
      </cc:Work>
    </rdf:RDF>
  </metadata>
  <defs id="defs12"/>
  <sodipodi:namedview pagecolor="#ffffff" bordercolor="#666666" borderopacity="1" objecttolerance="10" gridtolerance="10" guidetolerance="10" inkscape:pageopacity="0" inkscape:pageshadow="2" inkscape:window-width="1600" inkscape:window-height="837" id="namedview10" showgrid="false" inkscape:pagecheckerboard="true" inkscape:zoom="1.8338154" inkscape:cx="661.59858" inkscape:cy="88.075291" inkscape:window-x="-8" inkscape:window-y="-8" inkscape:window-maximized="1" inkscape:current-layer="svg8" fit-margin-top="0" fit-margin-left="0" fit-margin-right="0" fit-margin-bottom="0"/>
  <path d="M 662.92031,159.43584 H 359.69469 v 202.29122 h 303.22562 z" id="path2" style="fill:#003399;fill-opacity:1;stroke-width:5.34808302" inkscape:connector-curvature="0"/>
  <path d="m 511.14704,181.4218 2.88261,8.97944 9.41263,-0.0481 -7.64776,5.50852 2.94146,8.95804 -7.58894,-5.57804 -7.58357,5.57804 2.95213,-8.95804 -7.65845,-5.50852 9.41262,0.0481 z m 0,134.94817 2.88261,8.94734 9.41263,-0.0428 -7.64776,5.52457 2.94146,8.95804 -7.58894,-5.56736 -7.58357,5.56736 2.95213,-8.95804 -7.65845,-5.52457 9.41262,0.0428 z m -33.55922,-125.97408 2.87727,8.96873 9.41262,-0.0267 -7.62635,5.48714 2.95213,8.94734 -7.61567,-5.56736 -7.58358,5.56736 2.94145,-8.94734 -7.62637,-5.48714 9.41263,0.0267 z m -24.69744,24.77231 2.86657,8.96874 9.42332,-0.0641 -7.65845,5.51922 2.94144,8.94198 -7.57288,-5.57269 -7.59428,5.57269 2.95215,-8.94198 -7.67986,-5.51922 9.45007,0.0641 z m -9.11314,33.66084 2.85053,8.94734 9.43937,-0.0482 -7.64776,5.52457 2.9147,8.9313 -7.55684,-5.5727 -7.59963,5.5727 2.96285,-8.9313 -7.66915,-5.52457 9.42331,0.0482 z m 9.00618,33.63943 2.88796,9.00618 9.39124,-0.0749 -7.63707,5.51388 2.96818,8.94734 -7.61031,-5.59943 -7.59428,5.59943 2.96284,-8.94734 -7.66381,-5.49782 9.41798,0.0588 z m 24.8044,24.76164 2.87727,8.96873 9.41262,-0.0428 -7.62635,5.49783 2.95213,8.95269 -7.61567,-5.562 -7.58358,5.562 2.94145,-8.95269 -7.62637,-5.49783 9.41263,0.0428 z m 67.19334,-116.83422 -2.88797,8.96873 -9.46612,-0.0267 7.70126,5.48714 -2.99493,8.94734 7.64776,-5.56736 7.5408,5.56736 -2.94145,-8.94734 7.64776,-5.48714 -9.35914,0.0267 z m 24.70814,24.77231 -2.88796,8.96874 -9.46611,-0.0641 7.70125,5.51922 -2.99493,8.94198 7.64775,-5.57269 7.59429,5.57269 -2.99493,-8.94198 7.64776,-5.51922 -9.41263,0.0641 z m 9.09174,33.66084 -2.88797,8.94734 -9.41262,-0.0482 7.64776,5.52457 -2.94144,8.9313 7.59427,-5.5727 7.59428,5.5727 -2.94144,-8.9313 7.64776,-5.52457 -9.41263,0.0482 z m -9.03826,33.63943 -2.83448,9.00618 -9.46611,-0.0749 7.70125,5.51388 -2.99493,8.94734 7.59427,-5.59943 7.59428,5.59943 -2.94144,-8.94734 7.64776,-5.49782 -9.41263,0.0588 z m -24.76162,24.76164 -2.88797,8.96873 -9.46612,-0.0428 7.70126,5.49783 -2.99493,8.95269 7.64776,-5.562 7.5408,5.562 -2.94145,-8.95269 7.64776,-5.49783 -9.35914,0.0428 z" id="path4" inkscape:connector-curvature="0" style="fill:#ffcc00;fill-opacity:1;stroke-width:5.34808302"/>
  <path d="M 407.97183,119.12199 V 102.39853 C 401.88036,97.184151 377.56264,86.750041 362.74309,83.471666 v 11.776478 c 16.95343,4.160809 38.07301,16.418616 45.22874,23.873846 z m 12.32734,24.9595 h 14.40238 c 0.43854,-21.10354 -16.69137,-34.1689 -19.14613,-36.06212 v 20.10879 c 5.50852,8.91525 4.74375,15.95333 4.74375,15.95333 z m 35.84819,-42.47982 v 18.15674 c 7.2413,7.57823 11.58394,13.50925 15.03347,24.40865 h 15.24737 c -4.07523,-16.66463 -13.76596,-30.2862 -30.28084,-42.56539 z m -9.28962,9.95813 V 95.200011 C 432.8618,86.156404 405.20153,73.7542 377.56264,67.988966 v 11.728347 c 26.55323,6.439091 54.77505,20.19436 69.2951,31.842487 z m 39.20144,-9.93139 V 85.445109 C 469.27691,74.855905 434.7069,60.063108 393.91172,51.447345 v 11.712303 c 39.16936,9.460758 68.894,22.964668 92.14746,38.468762 z m 10.85661,-9.294971 c -0.0214,-0.01076 -0.0428,17.402661 -0.0428,17.402661 10.71755,8.50345 21.06076,19.69699 27.95978,34.43096 h 16.20471 C 535.4755,125.83383 514.77839,103.60185 496.91579,92.333439 Z M 529.80651,91.55262 V 75.363973 C 497.68592,56.367583 449.55318,39.673005 411.33577,32.93977 v 11.674863 c 43.16973,8.656407 94.59154,29.99526 118.47074,46.937987 z m 51.92991,52.61444 h 16.95341 C 586.49621,114.96653 555.95865,91.55262 541.67927,82.642714 v 17.17804 c 21.60626,16.006816 29.57491,27.451706 40.05715,44.346306 z M 572.85859,81.327085 V 64.555498 C 546.81343,48.6396 494.19896,24.820845 430.12359,12.47747 v 12.182932 c 48.75312,10.12927 110.91391,34.317045 142.735,56.668288 z m 63.9096,62.839975 h 18.55785 C 634.73592,109.17455 611.20435,89.162026 585.80095,72.620406 v 17.573801 c 18.82525,13.236503 39.04101,32.965583 50.96724,53.972853 z M 350.59226,91.964421 V 80.904587 C 333.90088,77.765261 304.572,75.765078 291.67778,77.444376 v 8.663895 c 19.36005,-1.00544 47.86534,2.59382 58.91448,5.85615 z m -71.88893,-5.064634 v -8.273484 c -30.97611,3.23559 -52.21869,13.878275 -64.50858,22.953967 v 7.1183 c 17.55241,-14.161721 41.8648,-20.02322 64.50858,-21.798783 z m -71.65897,29.221923 v -8.05421 c -28.48923,32.00827 7.15574,58.66311 10.94753,61.32112 v -10.94218 c -19.92161,-15.0602 -17.5845,-33.41482 -10.94753,-42.32473 z m 21.73461,49.10609 v 11.7337 c 19.34401,10.7122 38.81638,17.47754 66.50875,22.44055 l -0.19788,-15.90519 c -18.8199,-1.14449 -44.68857,-6.50862 -66.31087,-18.26906 z m 75.75024,18.76643 -0.0855,16.54696 c 16.20469,1.34772 31.48416,1.75418 39.83252,1.74348 V 183.668 c -12.29524,0.82895 -35.08876,0.98405 -39.74695,0.32623 z M 365.41714,76.861436 V 65.582329 c -19.9323,-4.04315 -58.58825,-7.048773 -81.48339,-4.909539 v 8.770855 c 30.21667,-1.1124 60.11244,2.748914 81.48339,7.417791 z M 284.84293,231.30336 v -17.71819 c -29.66047,-2.62056 -75.24754,-12.9691 -103.56028,-33.75709 v 11.81391 c 31.04028,23.41925 80.14637,36.4044 103.56028,39.66137 z M 170.533,182.76952 V 171.0786 c -25.11994,-23.89522 -20.21575,-48.19691 -3.99502,-63.8454 v -7.326876 c -31.17932,28.323446 -19.75581,62.583266 3.99502,82.863196 z m 124.72264,31.76761 v 18.34392 c 18.04978,2.53499 33.69827,3.35326 49.02053,3.35326 v -20.24785 c -16.51489,0.0963 -41.68831,-0.75942 -49.02053,-1.44933 z M 174.93982,93.017994 v 6.893679 C 201.95833,79.80823 242.47541,71.705884 270.95396,70.165637 v -8.428579 c -35.27061,2.305024 -75.78234,15.819629 -96.01414,31.280936 z M 130.97858,193.49778 v 12.6803 c 38.75756,34.94972 102.52275,53.98354 141.04499,60.62586 V 247.05347 C 236.52834,243.07449 172.39414,229.31389 130.97858,193.49778 Z M 381.76087,60.25564 V 49.120929 C 356.72115,44.557944 313.44447,39.589576 272.906,43.295796 v 8.825407 c 34.06729,-2.374549 82.14655,2.053666 108.85487,8.134437 z m -98.32984,188.08137 v 20.44037 c 17.18338,3.43882 45.44801,5.0379 60.84514,5.59945 v -22.78284 c -9.18267,0.32623 -49.38421,-1.98414 -60.84514,-3.25698 z M 259.90482,52.939459 v -8.57458 c -30.13111,2.593819 -84.00768,13.329029 -119.74893,37.518407 v 6.941811 C 174.93982,65.138439 228.77897,54.624109 259.90482,52.939459 Z M 130.34751,95.884566 V 88.825097 C 113.99842,101.15243 73.903845,142.73377 120.31451,195.3589 v -12.76587 c -10.31646,-11.53047 -35.217128,-48.88682 10.033,-86.708464 z M 399.18492,41.997282 V 30.56843 C 368.83991,24.616014 309.73825,19.460462 263.26876,24.022376 v 8.835033 c 41.08397,-3.182109 99.52247,1.454678 135.91616,9.139873 z M 270.78816,283.35091 v 21.6223 c 22.87911,4.4496 51.37369,7.20922 73.48801,7.95794 v -24.537 c -26.46231,-0.44923 -49.27189,-1.70069 -73.48801,-5.04324 z M 258.29504,302.9249 V 282.0032 C 194.69029,273.00772 124.60902,249.83983 81.182586,207.26373 v 13.49856 C 132.63114,272.00762 217.97585,295.63545 258.29504,302.9249 Z M 105.01899,69.636176 v 6.802762 C 147.54159,49.377636 205.79292,37.744487 250.28896,33.797602 V 25.187189 C 207.50965,28.898757 144.85686,43.466935 105.01899,69.636176 Z M 70.448983,207.68624 V 193.78122 C 53.800402,171.08396 37.467358,126.30981 94.996683,83.439578 v -7.00064 C 30.386497,122.63568 46.489574,179.18095 70.448983,207.68624 Z m -44.612101,8.73341 v 15.0709 C 74.64188,294.80116 175.42275,332.07194 238.08624,345.27636 V 322.1566 C 172.246,311.01119 72.215455,278.7569 25.836882,216.41965 Z M 417.846,22.043586 V 10.17619 C 387.84861,3.9082374 314.91679,-4.1727156 250.70237,2.5123878 V 11.630869 C 304.39712,6.9031635 372.16803,12.668397 417.846,22.043586 Z M 237.72257,12.736852 V 3.8215985 C 181.99554,9.5066101 112.80205,28.7811 72.370549,55.200097 v 7.070165 C 123.16664,31.123561 190.57387,17.197153 237.72257,12.736852 Z m 13.97454,311.622098 v 23.70269 c 14.31147,3.64204 68.63194,11.4128 92.58066,11.60535 v -27.17362 c -36.55949,-1.15518 -73.89445,-5.12881 -92.58066,-8.13442 z M 61.476505,69.447923 V 62.270797 C 45.122069,72.817215 -32.323517,130.96157 15.249284,214.87298 V 197.95165 C -14.507449,136.09573 30.849641,91.209272 61.476505,69.447923 Z" id="path6" inkscape:connector-curvature="0" style="fill:#bdbcbc;fill-opacity:1;stroke-width:5.34808302" sodipodi:nodetypes="cccccccccccccccccccccccccccccccccccccccccccccccccccccccccccccccccccccccccccccccccccccccccccccccccccccccccccccccccccccccccccccccccccccccccccccccccccccccccccccccccccccccccccccccc"/>
</svg>