<?xml version="1.0" encoding="UTF-8"?>
<svg width="1165" height="256" viewBox="0 0 1165 256" xmlns="http://www.w3.org/2000/svg">
 <path d="m218.66 159.66c3.461-9.912 5.342-20.565 5.342-31.658 0-53.019-42.981-96-96-96-53.019 0-96 42.981-96 96 0 26.234 10.523 50.011 27.578 67.338l97.38-97.38 24.042 24.042 37.658 37.658zm-17.536 30.547-44.164-44.163-69.16 69.16c12.229 5.647 25.848 8.798 40.202 8.798 29.288 0 55.514-13.116 73.122-33.795z" clip-rule="evenodd" fill="#10B981" fill-rule="evenodd"/>
 <path d="m283.07 178v-100.8h49.248c5.088 0 9.744 0.768 13.968 2.304 4.32 1.536 8.016 3.696 11.088 6.48 3.072 2.688 5.472 5.952 7.2 9.792s2.592 8.064 2.592 12.672c0 6.336-1.824 12-5.472 16.992-3.552 4.992-8.304 8.688-14.256 11.088l22.32 41.472h-23.328l-19.728-38.592h-22.752v38.592h-20.88zm47.376-82.8h-26.496v27.072h26.496c4.704 0 8.448-1.248 11.232-3.744 2.88-2.496 4.32-5.76 4.32-9.792s-1.44-7.296-4.32-9.792c-2.784-2.496-6.528-3.744-11.232-3.744zm41.247 45.36c0-5.472 1.008-10.56 3.024-15.264 2.112-4.8 4.944-8.928 8.496-12.384 3.648-3.552 7.92-6.336 12.816-8.352s10.128-3.024 15.696-3.024 10.8 1.008 15.696 3.024 9.12 4.8 12.672 8.352c3.648 3.456 6.48 7.584 8.496 12.384 2.112 4.704 3.168 9.792 3.168 15.264s-1.056 10.608-3.168 15.408c-2.016 4.704-4.848 8.784-8.496 12.24-3.552 3.456-7.776 6.192-12.672 8.208s-10.128 3.024-15.696 3.024-10.8-1.008-15.696-3.024-9.168-4.752-12.816-8.208c-3.552-3.456-6.384-7.536-8.496-12.24-2.016-4.8-3.024-9.936-3.024-15.408zm40.032 21.744c5.76 0 10.656-2.112 14.688-6.336s6.048-9.36 6.048-15.408c0-6.144-2.016-11.328-6.048-15.552s-8.928-6.336-14.688-6.336-10.656 2.112-14.688 6.336-6.048 9.408-6.048 15.552c0 6.048 2.016 11.184 6.048 15.408s8.928 6.336 14.688 6.336zm89.441-0.144c3.36 0 6.48-0.672 9.36-2.016 2.976-1.344 5.808-3.456 8.496-6.336l11.808 12.24c-3.84 4.224-8.448 7.536-13.824 9.936-5.376 2.304-10.944 3.456-16.704 3.456-5.472 0-10.656-1.008-15.552-3.024-4.8-2.016-8.976-4.752-12.528-8.208-3.456-3.456-6.192-7.536-8.208-12.24-2.016-4.8-3.024-9.936-3.024-15.408s1.008-10.56 3.024-15.264c2.016-4.8 4.752-8.928 8.208-12.384 3.552-3.552 7.728-6.336 12.528-8.352 4.896-2.016 10.08-3.024 15.552-3.024 5.952 0 11.664 1.2 17.136 3.6 5.472 2.304 10.128 5.568 13.968 9.792l-12.096 12.816c-2.688-2.976-5.568-5.232-8.64-6.768s-6.384-2.304-9.936-2.304c-5.664 0-10.464 2.112-14.4 6.336-3.84 4.224-5.76 9.408-5.76 15.552s1.968 11.28 5.904 15.408c4.032 4.128 8.928 6.192 14.688 6.192zm39.921 15.84v-100.8l19.728-4.32v61.776l32.4-31.68h22.32l-35.136 34.416 37.296 40.608h-25.2l-31.68-34.272v34.272h-19.728zm103.55 3.456 1.152-2.736-29.233-75.744h21.745l18.576 51.12 21.312-51.12h21.312l-34.56 80.928c-3.84 9.024-8.304 15.456-13.392 19.296s-11.712 5.76-19.872 5.76c-1.728 0-3.408-0.096-5.04-0.288-1.536-0.096-2.784-0.288-3.744-0.576v-16.992c0.96 0.192 1.968 0.336 3.024 0.432s2.352 0.144 3.888 0.144c3.552 0 6.528-0.864 8.928-2.592 2.496-1.728 4.464-4.272 5.904-7.632zm94.101-3.456v-100.8h11.088v90.864h60.048v9.936h-71.136zm90.219-85.968c-1.92 0-3.6-0.72-5.04-2.16s-2.16-3.12-2.16-5.04c0-2.016 0.72-3.696 2.16-5.04 1.44-1.44 3.12-2.16 5.04-2.16 2.016 0 3.696 0.72 5.04 2.16 1.44 1.344 2.16 3.024 2.16 5.04 0 1.92-0.72 3.6-2.16 5.04-1.344 1.44-3.024 2.16-5.04 2.16zm5.328 13.824v72.144h-10.656v-72.144h10.656zm18.172 72.144v-72.144h10.656v8.496c2.784-3.264 6.096-5.712 9.936-7.344 3.84-1.728 8.112-2.592 12.816-2.592 8.16 0 14.832 2.592 20.016 7.776s7.776 11.904 7.776 20.16v45.648h-10.512v-43.488c0-6.336-1.824-11.376-5.472-15.12s-8.544-5.616-14.688-5.616c-4.32 0-8.208 0.96-11.664 2.88-3.36 1.92-6.096 4.656-8.208 8.208v53.136h-10.656zm88.552-72.144v43.488c0 6.336 1.824 11.376 5.472 15.12s8.544 5.616 14.688 5.616c4.32 0 8.16-0.96 11.52-2.88 3.456-2.016 6.24-4.8 8.352-8.352v-52.992h10.656v72.144h-10.656v-8.352c-2.784 3.264-6.096 5.712-9.936 7.344-3.744 1.632-7.968 2.448-12.672 2.448-8.256 0-14.976-2.592-20.16-7.776s-7.776-11.904-7.776-20.16v-45.648h10.512zm60.455 72.144 28.37-37.152-26.93-34.992h12.67l20.45 27.072 20.45-27.072h12.24l-26.64 34.848 28.51 37.296h-12.67l-22.03-29.376-22.32 29.376h-12.1z"/>
 <path d="m1080 101.62v-15.648h-5.18v-3.024h5.18v-6.096l3.5-0.912v7.008h7.25v3.024h-7.25v14.736c0 1.28 0.29 2.208 0.87 2.784 0.57 0.544 1.52 0.816 2.83 0.816 0.67 0 1.26-0.048 1.78-0.144 0.54-0.096 1.12-0.256 1.72-0.48v3.12c-0.6 0.224-1.29 0.384-2.06 0.48-0.74 0.096-1.46 0.144-2.16 0.144-2.08 0-3.68-0.496-4.8-1.488s-1.68-2.432-1.68-4.32zm14.56 5.376v-24.048h3.55v2.64c0.89-1.024 1.93-1.792 3.12-2.304 1.18-0.544 2.49-0.816 3.93-0.816 1.67 0 3.16 0.4 4.47 1.2 1.34 0.768 2.38 1.824 3.12 3.168 0.99-1.472 2.17-2.56 3.55-3.264 1.41-0.736 2.98-1.104 4.7-1.104 2.6 0 4.71 0.864 6.34 2.592 1.66 1.728 2.5 3.968 2.5 6.72v15.216h-3.51v-14.496c0-2.112-0.56-3.792-1.68-5.04s-2.64-1.872-4.56-1.872c-1.31 0-2.51 0.336-3.6 1.008s-2.01 1.648-2.78 2.928c0.06 0.352 0.11 0.72 0.14 1.104 0.07 0.352 0.1 0.736 0.1 1.152v15.216h-3.51v-14.496c0-2.112-0.56-3.792-1.68-5.04s-2.62-1.872-4.51-1.872c-1.28 0-2.45 0.304-3.5 0.912-1.03 0.576-1.91 1.44-2.64 2.592v17.904h-3.55z"/>
</svg>
