<?xml version="1.0" encoding="UTF-8"?>
<svg width="400px" height="432px" viewBox="0 0 400 432" version="1.1" xmlns="http://www.w3.org/2000/svg" xmlns:xlink="http://www.w3.org/1999/xlink">
    <!-- Generator: Sketch 55.2 (78181) - https://sketchapp.com -->
    <title>Threema: Wortmarke + Bildmarke (Portrait, Small)</title>
    <desc>Created with Sketch.</desc>
    <g id="Threema-Logo-(Punkt-nach-Threema)" stroke="none" stroke-width="1" fill="none" fill-rule="evenodd">
        <g id="Threema:-Wortmarke-+-Bildmarke-(Portrait,-Small)" transform="translate(-208.000000, -204.000000)" fill="#000000">
            <path d="M592.911136,633.765789 L592.911136,619.61431 L607.283154,619.61431 L607.283154,633.765789 L592.911136,633.765789 Z M571.765845,608.680551 C570.898599,609.217639 570.02573,609.650918 569.144827,609.982389 C568.262317,610.31346 567.052431,610.621284 565.514767,610.905059 L562.435422,611.473411 C559.551297,611.978435 557.479789,612.593681 556.223708,613.319152 C554.094759,614.549645 553.028677,616.459115 553.028677,619.045958 C553.028677,621.349827 553.678208,623.0144 554.980884,624.039277 C556.279543,625.064956 557.861393,625.577996 559.724425,625.577996 C562.678443,625.577996 565.39908,624.725468 567.889148,623.021615 C570.376404,621.317762 571.66944,618.210264 571.765845,613.697919 L571.765845,608.680551 Z M588.130238,633.765789 L573.426828,633.765789 C573.013892,632.72488 572.728693,631.747299 572.573239,630.831443 C572.412965,629.916388 572.28804,628.875078 572.193242,627.707912 C570.316553,629.727606 568.153058,631.446689 565.70356,632.866767 C562.776857,634.538956 559.468549,635.375051 555.780244,635.375051 C551.071248,635.375051 547.182902,634.041548 544.115206,631.375746 C541.043493,628.709943 539.510248,624.931085 539.510248,620.039972 C539.510248,613.697919 541.978624,609.106614 546.916985,606.266859 C549.624366,604.720926 553.607109,603.616288 558.863204,602.953344 L563.499495,602.385393 C566.015672,602.070755 567.815639,601.675554 568.89819,601.202596 C570.840756,600.382133 571.813646,599.104344 571.813646,597.368826 C571.813646,595.254942 571.068112,593.795184 569.576642,592.990353 C568.087582,592.185922 565.897978,591.783507 563.013853,591.783507 C559.776644,591.783507 557.483806,592.572706 556.138952,594.150304 C555.175301,595.31787 554.535411,596.895467 554.215667,598.883496 L541.17123,598.883496 C541.456429,594.371151 542.726167,590.664038 544.982452,587.760554 C548.570335,583.216545 554.732239,580.945142 563.466958,580.945142 C569.150852,580.945142 574.200882,582.065412 578.615841,584.305552 C583.029998,586.546093 585.236072,590.773861 585.236072,596.990059 L585.236072,620.655219 C585.236072,622.296546 585.26901,624.284174 585.332477,626.618905 C585.426874,628.386087 585.6948,629.584916 586.137863,630.216196 C586.581327,630.847876 587.243712,631.368531 588.130238,631.77776 L588.130238,633.765789 Z M526.041628,582.364819 C528.255736,583.248209 530.263375,584.794944 532.066556,587.003419 C533.519464,588.801864 534.499985,591.010741 535.006917,593.629648 C535.323045,595.365166 535.481311,597.905514 535.481311,601.249491 L535.386512,633.765789 L521.534681,633.765789 L521.534681,600.91842 C521.534681,598.962055 521.218552,597.352794 520.586696,596.090636 C519.384442,593.692977 517.172343,592.493345 513.946381,592.493345 C510.213891,592.493345 507.637861,594.039679 506.213875,597.131946 C505.486015,598.772872 505.123692,600.745269 505.123692,603.048337 L505.123692,633.765789 L491.510464,633.765789 L491.510464,603.048337 C491.510464,599.988135 491.192327,597.763226 490.560471,596.374812 C489.421684,593.882561 487.192312,592.635634 483.872355,592.635634 C480.014939,592.635634 477.421236,593.882561 476.093655,596.374812 C475.365393,597.794489 475.00307,599.909175 475.00307,602.717266 L475.00307,633.765789 L461.293437,633.765789 L461.293437,582.270227 L474.432672,582.270227 L474.432672,589.795478 C476.108919,587.114444 477.689162,585.204574 479.176615,584.069073 C481.800847,582.04978 485.199936,581.039733 489.375489,581.039733 C493.327302,581.039733 496.522334,581.907893 498.957772,583.642608 C500.917209,585.25187 502.402653,587.31926 503.416516,589.842774 C505.187159,586.813835 507.383994,584.589327 510.008226,583.16965 C512.790723,581.749973 515.890554,581.039733 519.304908,581.039733 C521.582482,581.039733 523.82752,581.481829 526.041628,582.364819 Z M443.574148,602.858752 C443.327511,599.277895 442.128872,596.561189 439.972608,594.707032 C437.81795,592.852874 435.145515,591.925795 431.955304,591.925795 C428.485116,591.925795 425.795007,592.908186 423.88538,594.872968 C421.974547,596.838151 420.774703,599.499945 420.284643,602.858752 L443.574148,602.858752 Z M457.609149,611.757186 L419.951643,611.757186 C420.161324,616.932475 421.964505,620.560627 425.358773,622.643248 C427.423453,623.93707 429.908299,624.583581 432.812909,624.583581 C435.891853,624.583581 438.394775,623.795584 440.318863,622.216784 C441.368074,621.365058 442.296376,620.18186 443.102164,618.667591 L456.902579,618.667591 C456.539854,621.728194 454.869231,624.836894 451.892316,627.991687 C447.260445,633.008254 440.776387,635.516938 432.439741,635.516938 C425.558011,635.516938 419.488496,633.40105 414.227981,629.169675 C408.96827,624.938299 406.338415,618.053146 406.338415,608.514615 C406.338415,599.578504 408.711591,592.725015 413.461158,587.95615 C418.209519,583.187686 424.372226,580.802853 431.949681,580.802853 C436.448995,580.802853 440.502837,581.608887 444.110001,583.220553 C447.715156,584.83262 450.694079,587.376976 453.044761,590.85242 C455.162463,593.917832 456.53423,597.473037 457.164078,601.518436 C457.526401,603.888439 457.675026,607.301356 457.609149,611.757186 Z M389.501636,602.858752 C389.255401,599.277895 388.055557,596.561189 385.900096,594.707032 C383.745036,592.852874 381.072602,591.925795 377.881989,591.925795 C374.412202,591.925795 371.722495,592.908186 369.812466,594.872968 C367.902035,596.838151 366.702191,599.499945 366.211327,602.858752 L389.501636,602.858752 Z M403.536235,611.757186 L365.879131,611.757186 C366.088812,616.932475 367.891189,620.560627 371.286261,622.643248 C373.350539,623.93707 375.835385,624.583581 378.739996,624.583581 C381.819341,624.583581 384.321861,623.795584 386.245949,622.216784 C387.295964,621.365058 388.223463,620.18186 389.028447,618.667591 L402.830468,618.667591 C402.46694,621.728194 400.796317,624.836894 397.818599,627.991687 C393.187129,633.008254 386.703473,635.516938 378.367229,635.516938 C371.485901,635.516938 365.415582,633.40105 360.155068,629.169675 C354.895357,624.938299 352.265903,618.053146 352.265903,608.514615 C352.265903,599.578504 354.639481,592.725015 359.388244,587.95615 C364.135802,583.187686 370.299714,580.802853 377.877168,580.802853 C382.376483,580.802853 386.429923,581.608887 390.036685,583.220553 C393.643447,584.83262 396.621567,587.376976 398.971445,590.85242 C401.088345,593.917832 402.461718,597.473037 403.090762,601.518436 C403.454291,603.888439 403.602514,607.301356 403.536235,611.757186 Z M339.668947,584.115968 C342.198381,582.002484 345.487005,580.945142 349.535224,580.945142 C349.787886,580.945142 350.001182,580.953158 350.175515,580.968389 C350.349045,580.984822 350.736674,581.00847 351.338002,581.039733 L351.338002,594.860142 C350.48361,594.76555 349.725222,594.702623 349.060829,594.670558 C348.396436,594.639695 347.858575,594.623262 347.448049,594.623262 C342.008382,594.623262 338.356229,596.391245 336.490787,599.924405 C335.4472,601.912434 334.925406,604.973438 334.925406,609.106614 L334.925406,633.765789 L321.311777,633.765789 L321.311777,582.175635 L334.214016,582.175635 L334.214016,591.16826 C336.30119,587.729691 338.119233,585.378126 339.668947,584.115968 Z M307.043796,582.461014 C309.640713,583.566454 311.774885,585.256679 313.443901,587.529686 C314.860256,589.457192 315.725895,591.438808 316.040818,593.475736 C316.356144,595.512665 316.513606,598.836601 316.513606,603.446744 L316.513606,633.765789 L302.710379,633.765789 L302.710379,602.350522 C302.710379,599.570488 302.238797,597.326741 301.297641,595.621685 C300.072892,593.221221 297.750328,592.020387 294.329146,592.020387 C290.782235,592.020387 288.090118,593.212804 286.254,595.598038 C284.417077,597.983272 283.499219,601.386569 283.499219,605.809132 L283.499219,633.765789 L269.980388,633.765789 L269.980388,564.237281 L283.499219,564.237281 L283.499219,588.84916 C285.451827,585.851485 287.710924,583.761249 290.27651,582.578051 C292.842496,581.394452 295.542647,580.802853 298.376962,580.802853 C301.557131,580.802853 304.446076,581.355974 307.043796,582.461014 Z M208.716846,564 L265.353337,564 L265.353337,576.353837 L244.434196,576.353837 L244.434196,633.765789 L229.729982,633.765789 L229.729982,576.353837 L208.716846,576.353837 L208.716846,564 Z M431.638965,503.854581 C431.638965,516.930594 421.0583,527.518312 407.978613,527.518312 C394.921091,527.518312 384.340426,516.930594 384.340426,503.854581 C384.340426,490.803507 394.921091,480.199163 407.978613,480.199163 C421.0583,480.199163 431.638965,490.803507 431.638965,503.854581 Z M346.316109,503.854581 C346.316109,516.930594 335.735444,527.518312 322.655758,527.518312 C309.598235,527.518312 299.01757,516.930594 299.01757,503.854581 C299.01757,490.803507 309.598235,480.199163 322.655758,480.199163 C335.735444,480.199163 346.316109,490.803507 346.316109,503.854581 Z M516.961821,503.854581 C516.961821,516.930594 506.381155,527.518312 493.301469,527.518312 C480.243947,527.518312 469.663281,516.930594 469.663281,503.854581 C469.663281,490.803507 480.243947,480.199163 493.301469,480.199163 C506.381155,480.199163 516.961821,490.803507 516.961821,503.854581 Z M347.086457,436.595482 L277.449848,454.004634 L292.332083,394.475696 C277.593145,375.059941 269,351.724593 269,326.623175 C269,259.072371 331.23242,204.311625 408,204.311625 C484.76758,204.311625 547,259.072371 547,326.623175 C547,394.173979 484.76758,448.934725 408,448.934725 C386.151626,448.934725 365.480593,444.49913 347.086457,436.595482 L347.086457,436.595482 Z M368.567376,316.469874 L367.018237,316.469874 C363.518195,316.469874 360.680851,319.307218 360.680851,322.80726 L360.680851,378.378494 C360.680851,381.878536 363.518195,384.71588 367.018237,384.71588 L448.981763,384.71588 C452.481805,384.71588 455.319149,381.878536 455.319149,378.378494 L455.319149,322.80726 C455.319149,319.307218 452.481805,316.469874 448.981763,316.469874 L447.432624,316.469874 L447.432624,300.720795 C447.432624,278.995702 429.790498,261.348099 407.981522,261.348099 C386.209502,261.348099 368.567376,278.995702 368.567376,300.720795 L368.567376,316.469874 Z M431.659574,316.469874 L384.340426,316.469874 L384.340426,300.723563 C384.340426,287.688507 394.925701,277.097178 407.988913,277.097178 C421.074299,277.097178 431.659574,287.688507 431.659574,300.723563 C431.659574,309.430206 431.659574,314.678976 431.659574,316.469874 Z"></path>
        </g>
    </g>
</svg>