<svg width="200" height="40" viewBox="0 0 200 40" fill="none" xmlns="http://www.w3.org/2000/svg">
<path d="M192.199 21.1742C194.093 21.1742 195.628 19.6388 195.628 17.7447C195.628 15.8506 194.093 14.3152 192.199 14.3152C190.305 14.3152 188.769 15.8506 188.769 17.7447C188.769 19.6388 190.305 21.1742 192.199 21.1742Z" fill="black"/>
<path d="M23.0352 35.557V35.4772C21.7059 32.6857 21.3072 30.9577 21.3072 27.156V4.77098L24.2316 4.93049C26.3052 5.16976 29.4423 9.3171 31.7287 12.6137L32.3933 12.4808L30.8779 4H5.54196L4 12.4808L4.66464 12.6137C6.95099 9.3171 10.0615 5.16976 12.1086 4.93049L15.1127 4.77098V27.156C15.1127 30.9577 14.6874 32.6857 13.3315 35.4772V35.557H23.0352Z" fill="black"/>
<path d="M161.227 20.5627L166.65 35.9557H167.82L173.296 21.5996L178.215 35.9557H179.385L185.047 20.7222C186.217 17.7181 187.068 16.4686 188.583 14.8734V14.7937H183.612V14.8734C184.356 15.8305 185.127 18.1169 183.957 21.2274L181.325 28.2193L178.826 20.4032C178.002 17.8244 178.215 15.7773 178.879 14.8734V14.7937H170.08V14.8734C171.116 15.9103 171.808 17.08 172.924 20.4298L169.814 28.4852L167.182 20.3766C166.358 17.9573 166.623 15.7508 167.262 14.8468V14.7671H158.329V14.8734C159.419 16.0432 160.057 17.3459 161.227 20.5627Z" fill="black"/>
<path d="M148.678 15.0063C152.48 15.0063 154.155 19.6322 154.155 25.2418C154.155 30.9045 152.48 35.424 148.678 35.424C144.85 35.424 143.255 30.9045 143.255 25.2418C143.255 19.6322 144.903 15.0063 148.678 15.0063ZM148.678 36.2216C154.899 36.2216 159.977 31.0906 159.977 25.2152C159.977 19.3132 154.846 14.129 148.678 14.129C142.51 14.129 137.379 19.3132 137.379 25.2152C137.379 31.0906 142.431 36.2216 148.678 36.2216Z" fill="black"/>
<path d="M123.954 35.5835H131.451V35.5038C130.627 33.2972 130.467 31.2235 130.467 27.5547V20.0044C131.291 19.0208 132.195 18.4625 132.886 18.4625C133.923 18.4625 136.077 19.2866 136.981 20.3235H137.193L137.592 14.1556C134.349 14.0227 132.115 17.2927 130.334 19.2069H130.281V13.9164L122.917 16.2825V16.3622C124.166 17.8776 124.937 19.5525 124.937 22.5301V27.5281C124.937 31.3298 124.645 33.2174 123.954 35.4772V35.5835Z" fill="black"/>
<path d="M107.471 35.5835H114.968V35.5038C114.144 33.2972 113.984 31.2235 113.984 27.5547V20.0044C114.808 19.0208 115.712 18.4625 116.403 18.4625C117.44 18.4625 119.594 19.2866 120.498 20.3235H120.71L121.109 14.1556C117.866 14.0227 115.632 17.2927 113.851 19.2069H113.798V13.9164L106.434 16.2825V16.3622C107.683 17.8776 108.454 19.5525 108.454 22.5301V27.5281C108.454 31.3298 108.162 33.2174 107.471 35.4772V35.5835Z" fill="black"/>
<path d="M94.4173 15.0063C98.219 15.0063 99.8939 19.6322 99.8939 25.2418C99.8939 30.9045 98.219 35.424 94.4173 35.424C90.5889 35.424 88.9938 30.9045 88.9938 25.2418C88.9938 19.6322 90.6155 15.0063 94.4173 15.0063ZM94.4173 36.2216C100.638 36.2216 105.716 31.0906 105.716 25.2152C105.716 19.3132 100.585 14.129 94.4173 14.129C88.2494 14.129 83.1184 19.3132 83.1184 25.2152C83.1184 31.0906 88.1697 36.2216 94.4173 36.2216Z" fill="black"/>
<path d="M56.8786 35.5835V35.5038C56.0544 33.2972 55.8949 31.2235 55.8949 27.5547V19.3132C56.8786 17.7712 58.3408 17.0269 59.8561 17.0269C62.0627 17.0269 62.7539 18.6752 62.7539 20.6159V27.6079C62.7539 31.1438 62.5944 33.2972 61.7703 35.5038V35.5835H69.2674V35.5038C68.4432 33.2972 68.2306 31.2767 68.2306 27.5281V19.3132C68.6592 18.6186 69.2574 18.0443 69.9689 17.6444C70.6804 17.2444 71.4819 17.0319 72.2981 17.0269C74.5047 17.0269 75.1428 18.6752 75.1428 20.6159V27.6079C75.1428 31.1438 74.9833 33.2972 74.1591 35.5038V35.5835H81.6562V35.5038C80.8321 33.2972 80.6726 31.2767 80.6726 27.5281V19.9247C80.6726 16.309 78.6787 14.1556 75.063 14.1556C71.9525 14.1556 69.7459 15.9368 68.2571 18.2232H68.1774C67.6723 15.6444 65.8113 14.1556 62.7008 14.1556C59.5903 14.1556 57.3571 15.9368 55.9215 18.2232L55.762 18.17V13.9164L48.3978 16.2825V16.3622C49.6473 17.8776 50.4183 19.5525 50.4183 22.5301V27.5281C50.4183 31.3298 50.1258 33.2174 49.4346 35.4772V35.5569H56.8786V35.5835Z" fill="black"/>
<path d="M36.3014 15.0063C40.1031 15.0063 41.778 19.6322 41.778 25.2418C41.778 30.9045 40.1031 35.424 36.3014 35.424C32.4731 35.424 30.8779 30.9045 30.8779 25.2418C30.8513 19.6322 32.4996 15.0063 36.3014 15.0063ZM36.3014 36.2216C42.5224 36.2216 47.6002 31.0906 47.6002 25.2152C47.6002 19.3132 42.4692 14.129 36.3014 14.129C30.1335 14.129 24.976 19.3132 24.976 25.2152C24.976 31.0906 30.0272 36.2216 36.3014 36.2216Z" fill="black"/>
</svg>
